<svg width="496" height="207" viewBox="0 0 496 207" fill="none" xmlns="http://www.w3.org/2000/svg">
<g clip-path="url(#clip0_42_343)">
<mask id="mask0_42_343" style="mask-type:alpha" maskUnits="userSpaceOnUse" x="-106" y="-133" width="703" height="512">
<rect x="-106" y="-133" width="703" height="512" fill="url(#paint0_radial_42_343)"/>
</mask>
<g mask="url(#mask0_42_343)">
<path fill-rule="evenodd" clip-rule="evenodd" d="M1.9434 51H20.8113L22.3208 62.3208L29.1132 66.0943L41.1887 62.3208L51 78.9245L41.1887 85.717V94.0189L51 101.566L41.1887 118.17L29.1132 114.396L22.3208 118.17L20.8113 131H1.18868L-0.320755 118.925L-7.86792 114.396L-18.434 118.925L-29 101.566L-18.434 94.0189V85.717L-28.2453 78.1698L-19.1887 61.566L-7.86792 66.0943L-0.320755 62.3208L1.9434 51ZM11 104.585C18.9196 104.585 25.3396 98.1648 25.3396 90.2453C25.3396 82.3257 18.9196 75.9056 11 75.9056C3.08047 75.9056 -3.3396 82.3257 -3.3396 90.2453C-3.3396 98.1648 3.08047 104.585 11 104.585Z" fill="#EBEAFD"/>
<path d="M20.8113 51L21.4061 50.9207L21.3366 50.4H20.8113V51ZM1.9434 51V50.4H1.45152L1.35505 50.8823L1.9434 51ZM22.3208 62.3208L21.726 62.4001L21.7659 62.6989L22.0294 62.8452L22.3208 62.3208ZM29.1132 66.0943L28.8218 66.6188L29.0467 66.7437L29.2922 66.667L29.1132 66.0943ZM41.1887 62.3208L41.7052 62.0155L41.4634 61.6063L41.0097 61.7481L41.1887 62.3208ZM51 78.9245L51.3415 79.4178L51.8006 79.1L51.5166 78.6193L51 78.9245ZM41.1887 85.717L40.8472 85.2237L40.5887 85.4026V85.717H41.1887ZM41.1887 94.0189H40.5887V94.3143L40.8229 94.4944L41.1887 94.0189ZM51 101.566L51.5166 101.871L51.7867 101.414L51.3658 101.09L51 101.566ZM41.1887 118.17L41.0097 118.743L41.4634 118.884L41.7052 118.475L41.1887 118.17ZM29.1132 114.396L29.2922 113.824L29.0467 113.747L28.8218 113.872L29.1132 114.396ZM22.3208 118.17L22.0294 117.645L21.7608 117.795L21.7249 118.1L22.3208 118.17ZM20.8113 131V131.6H21.3449L21.4072 131.07L20.8113 131ZM1.18868 131L0.593312 131.074L0.659009 131.6H1.18868V131ZM-0.320755 118.925L0.274612 118.85L0.238386 118.56L-0.0120575 118.41L-0.320755 118.925ZM-7.86792 114.396L-7.55923 113.882L-7.82229 113.724L-8.10428 113.845L-7.86792 114.396ZM-18.434 118.925L-18.9465 119.236L-18.6759 119.681L-18.1976 119.476L-18.434 118.925ZM-29 101.566L-29.3487 101.078L-29.8024 101.402L-29.5125 101.878L-29 101.566ZM-18.434 94.0189L-18.0852 94.5071L-17.834 94.3276V94.0189H-18.434ZM-18.434 85.717H-17.834V85.4215L-18.0681 85.2414L-18.434 85.717ZM-28.2453 78.1698L-28.772 77.8825L-29.0176 78.3327L-28.6111 78.6454L-28.2453 78.1698ZM-19.1887 61.566L-18.9658 61.009L-19.4604 60.8111L-19.7154 61.2787L-19.1887 61.566ZM-7.86792 66.0943L-8.09076 66.6514L-7.84059 66.7515L-7.5996 66.631L-7.86792 66.0943ZM-0.320755 62.3208L-0.0524268 62.8574L0.210043 62.7262L0.267593 62.4384L-0.320755 62.3208ZM20.8113 50.4H1.9434V51.6H20.8113V50.4ZM22.9155 62.2415L21.4061 50.9207L20.2166 51.0793L21.726 62.4001L22.9155 62.2415ZM29.4046 65.5698L22.6121 61.7963L22.0294 62.8452L28.8218 66.6188L29.4046 65.5698ZM41.0097 61.7481L28.9342 65.5217L29.2922 66.667L41.3676 62.8934L41.0097 61.7481ZM51.5166 78.6193L41.7052 62.0155L40.6721 62.626L50.4834 79.2298L51.5166 78.6193ZM41.5302 86.2103L51.3415 79.4178L50.6585 78.4312L40.8472 85.2237L41.5302 86.2103ZM41.7887 94.0189V85.717H40.5887V94.0189H41.7887ZM51.3658 101.09L41.5545 93.5433L40.8229 94.4944L50.6342 102.042L51.3658 101.09ZM41.7052 118.475L51.5166 101.871L50.4834 101.261L40.6721 117.865L41.7052 118.475ZM28.9342 114.969L41.0097 118.743L41.3676 117.597L29.2922 113.824L28.9342 114.969ZM22.6121 118.694L29.4046 114.921L28.8218 113.872L22.0294 117.645L22.6121 118.694ZM21.4072 131.07L22.9166 118.24L21.7249 118.1L20.2154 130.93L21.4072 131.07ZM1.18868 131.6H20.8113V130.4H1.18868V131.6ZM-0.916122 118.999L0.593312 131.074L1.78405 130.926L0.274612 118.85L-0.916122 118.999ZM-8.17662 114.911L-0.629452 119.439L-0.0120575 118.41L-7.55923 113.882L-8.17662 114.911ZM-18.1976 119.476L-7.63157 114.948L-8.10428 113.845L-18.6703 118.373L-18.1976 119.476ZM-29.5125 101.878L-18.9465 119.236L-17.9214 118.613L-28.4875 101.254L-29.5125 101.878ZM-18.7827 93.5306L-29.3487 101.078L-28.6513 102.054L-18.0852 94.5071L-18.7827 93.5306ZM-19.034 85.717V94.0189H-17.834V85.717H-19.034ZM-28.6111 78.6454L-18.7998 86.1926L-18.0681 85.2414L-27.8795 77.6942L-28.6111 78.6454ZM-19.7154 61.2787L-28.772 77.8825L-27.7185 78.4571L-18.6619 61.8533L-19.7154 61.2787ZM-7.64509 65.5373L-18.9658 61.009L-19.4115 62.1231L-8.09076 66.6514L-7.64509 65.5373ZM-0.589083 61.7841L-8.13625 65.5577L-7.5996 66.631L-0.0524268 62.8574L-0.589083 61.7841ZM1.35505 50.8823L-0.909103 62.2031L0.267593 62.4384L2.53175 51.1177L1.35505 50.8823ZM24.7396 90.2453C24.7396 97.8335 18.5882 103.985 11 103.985V105.185C19.2509 105.185 25.9396 98.4962 25.9396 90.2453H24.7396ZM11 76.5056C18.5882 76.5056 24.7396 82.6571 24.7396 90.2453H25.9396C25.9396 81.9943 19.2509 75.3056 11 75.3056V76.5056ZM-2.7396 90.2453C-2.7396 82.6571 3.41184 76.5056 11 76.5056V75.3056C2.7491 75.3056 -3.9396 81.9943 -3.9396 90.2453H-2.7396ZM11 103.985C3.41184 103.985 -2.7396 97.8335 -2.7396 90.2453H-3.9396C-3.9396 98.4962 2.7491 105.185 11 105.185V103.985Z" fill="#BDBAFA"/>
<path fill-rule="evenodd" clip-rule="evenodd" d="M111.343 67.3491L136.324 72.44L135.156 87.9474L143.094 94.8136L160.137 93.0384L168.484 117.833L153.594 124.245L151.272 135.319L162.152 148.033L144.518 167.532L129.586 159.241L119.537 162.442L113.95 179.148L87.97 173.853L89.3486 157.339L80.6226 149.263L65.3668 152.452L56.232 126.447L72.3321 119.231L74.6539 108.158L63.7744 95.444L80.4089 75.7407L94.1311 84.8353L105.179 81.8383L111.343 67.3491ZM108.292 141.219C118.778 143.356 129.073 136.525 131.288 125.961C133.503 115.398 126.798 105.102 116.313 102.965C105.828 100.828 95.5319 107.659 93.317 118.223C91.1022 128.786 97.8068 139.082 108.292 141.219Z" fill="#EBEAFD"/>
<path d="M136.324 72.44L136.922 72.4851L136.962 71.9577L136.444 71.8521L136.324 72.44ZM111.343 67.3491L111.463 66.7612L110.982 66.6633L110.791 67.1142L111.343 67.3491ZM135.156 87.9474L134.558 87.9024L134.535 88.2036L134.764 88.4012L135.156 87.9474ZM143.094 94.8136L142.702 95.2674L142.898 95.4372L143.156 95.4103L143.094 94.8136ZM160.137 93.0384L160.706 92.8469L160.553 92.3919L160.075 92.4416L160.137 93.0384ZM168.484 117.833L168.721 118.384L169.229 118.165L169.053 117.641L168.484 117.833ZM153.594 124.245L153.357 123.694L153.071 123.817L153.007 124.122L153.594 124.245ZM151.272 135.319L150.685 135.196L150.625 135.485L150.816 135.709L151.272 135.319ZM162.152 148.033L162.597 148.435L162.951 148.044L162.608 147.643L162.152 148.033ZM144.518 167.532L144.227 168.057L144.643 168.288L144.963 167.935L144.518 167.532ZM129.586 159.241L129.877 158.716L129.65 158.591L129.403 158.669L129.586 159.241ZM119.537 162.442L119.355 161.87L119.065 161.962L118.968 162.251L119.537 162.442ZM113.95 179.148L113.831 179.736L114.351 179.842L114.519 179.338L113.95 179.148ZM87.97 173.853L87.3721 173.803L87.3277 174.335L87.8502 174.441L87.97 173.853ZM89.3486 157.339L89.9466 157.389L89.9709 157.097L89.7562 156.899L89.3486 157.339ZM80.6226 149.263L81.0302 148.822L80.803 148.612L80.4999 148.675L80.6226 149.263ZM65.3668 152.452L64.8007 152.651L64.975 153.147L65.4896 153.039L65.3668 152.452ZM56.232 126.447L55.9866 125.9L55.483 126.125L55.6659 126.646L56.232 126.447ZM72.3321 119.231L72.5775 119.779L72.8566 119.654L72.9194 119.355L72.3321 119.231ZM74.6539 108.158L75.2411 108.281L75.3017 107.992L75.1098 107.768L74.6539 108.158ZM63.7744 95.444L63.316 95.0569L62.987 95.4466L63.3186 95.8341L63.7744 95.444ZM80.4089 75.7407L80.7404 75.2406L80.2951 74.9455L79.9504 75.3537L80.4089 75.7407ZM94.1311 84.8353L93.7997 85.3355L94.0261 85.4855L94.2882 85.4144L94.1311 84.8353ZM105.179 81.8383L105.336 82.4174L105.617 82.3412L105.731 82.0732L105.179 81.8383ZM131.288 125.961L130.701 125.838L130.701 125.838L131.288 125.961ZM108.292 141.219L108.172 141.807L108.292 141.219ZM93.317 118.223L93.9042 118.346L93.9042 118.346L93.317 118.223ZM136.444 71.8521L111.463 66.7612L111.223 67.937L136.204 73.0279L136.444 71.8521ZM135.755 87.9925L136.922 72.4851L135.725 72.395L134.558 87.9024L135.755 87.9925ZM143.487 94.3598L135.549 87.4937L134.764 88.4012L142.702 95.2674L143.487 94.3598ZM160.075 92.4416L143.032 94.2168L143.156 95.4103L160.199 93.6351L160.075 92.4416ZM169.053 117.641L160.706 92.8469L159.569 93.2298L167.915 118.024L169.053 117.641ZM153.831 124.796L168.721 118.384L168.247 117.281L153.357 123.694L153.831 124.796ZM151.86 135.442L154.181 124.368L153.007 124.122L150.685 135.196L151.86 135.442ZM162.608 147.643L151.728 134.929L150.816 135.709L161.696 148.423L162.608 147.643ZM144.963 167.935L162.597 148.435L161.707 147.63L144.073 167.13L144.963 167.935ZM129.294 159.765L144.227 168.057L144.809 167.008L129.877 158.716L129.294 159.765ZM119.719 163.013L129.768 159.813L129.403 158.669L119.355 161.87L119.719 163.013ZM114.519 179.338L120.106 162.632L118.968 162.251L113.381 178.957L114.519 179.338ZM87.8502 174.441L113.831 179.736L114.07 178.56L88.0898 173.265L87.8502 174.441ZM88.7507 157.289L87.3721 173.803L88.5679 173.903L89.9466 157.389L88.7507 157.289ZM80.2151 149.703L88.9411 157.779L89.7562 156.899L81.0302 148.822L80.2151 149.703ZM65.4896 153.039L80.7454 149.85L80.4999 148.675L65.244 151.864L65.4896 153.039ZM55.6659 126.646L64.8007 152.651L65.9329 152.253L56.7981 126.248L55.6659 126.646ZM72.0867 118.684L55.9866 125.9L56.4774 126.995L72.5775 119.779L72.0867 118.684ZM74.0667 108.035L71.7449 119.108L72.9194 119.355L75.2411 108.281L74.0667 108.035ZM63.3186 95.8341L74.198 108.548L75.1098 107.768L64.2303 95.0539L63.3186 95.8341ZM79.9504 75.3537L63.316 95.0569L64.2329 95.831L80.8674 76.1278L79.9504 75.3537ZM94.4626 84.3352L80.7404 75.2406L80.0774 76.2409L93.7997 85.3355L94.4626 84.3352ZM105.022 81.2593L93.974 84.2563L94.2882 85.4144L105.336 82.4174L105.022 81.2593ZM110.791 67.1142L104.627 81.6035L105.731 82.0732L111.895 67.584L110.791 67.1142ZM130.701 125.838C128.553 136.083 118.569 142.701 108.412 140.631L108.172 141.807C118.986 144.01 129.594 136.966 131.875 126.084L130.701 125.838ZM116.193 103.553C126.348 105.622 132.849 115.595 130.701 125.838L131.875 126.084C134.158 115.2 127.249 104.581 116.433 102.377L116.193 103.553ZM93.9042 118.346C96.0524 108.101 106.036 101.483 116.193 103.553L116.433 102.377C105.619 100.173 95.0114 107.218 92.7298 118.1L93.9042 118.346ZM108.412 140.631C98.2574 138.561 91.7567 128.589 93.9042 118.346L92.7298 118.1C90.4477 128.984 97.3562 139.602 108.172 141.807L108.412 140.631Z" fill="#BDBAFA"/>
<path fill-rule="evenodd" clip-rule="evenodd" d="M237.505 -78.9617L279.509 -70.4017L277.546 -44.3273L290.893 -32.7825L319.549 -35.7673L333.584 5.92201L308.548 16.7046L304.644 35.3237L322.937 56.7013L293.287 89.4882L268.179 75.5466L251.283 80.9282L241.89 109.018L198.206 100.116L200.524 72.3489L185.852 58.7691L160.201 64.1314L144.841 20.407L171.912 8.27417L175.816 -10.3449L157.523 -31.7225L185.493 -64.8518L208.566 -49.56L227.141 -54.5992L237.505 -78.9617ZM232.376 45.244C250.007 48.837 267.318 37.351 271.042 19.5894C274.766 1.82782 263.493 -15.4834 245.863 -19.0764C228.232 -22.6693 210.921 -11.1833 207.197 6.57825C203.473 24.3398 214.746 41.6511 232.376 45.244Z" fill="#EBEAFD"/>
<path d="M279.509 -70.4017L280.107 -70.3566L280.147 -70.884L279.629 -70.9896L279.509 -70.4017ZM237.505 -78.9617L237.625 -79.5496L237.145 -79.6474L236.953 -79.1965L237.505 -78.9617ZM277.546 -44.3273L276.947 -44.3723L276.925 -44.0711L277.153 -43.8735L277.546 -44.3273ZM290.893 -32.7825L290.5 -32.3287L290.696 -32.1588L290.955 -32.1857L290.893 -32.7825ZM319.549 -35.7673L320.118 -35.9587L319.965 -36.4138L319.487 -36.3641L319.549 -35.7673ZM333.584 5.92201L333.821 6.47307L334.329 6.25443L334.152 5.73058L333.584 5.92201ZM308.548 16.7046L308.31 16.1535L308.024 16.2767L307.96 16.5815L308.548 16.7046ZM304.644 35.3237L304.056 35.2005L303.996 35.4895L304.188 35.7138L304.644 35.3237ZM322.937 56.7013L323.382 57.1037L323.736 56.7122L323.392 56.3112L322.937 56.7013ZM293.287 89.4882L292.996 90.0128L293.412 90.2441L293.732 89.8906L293.287 89.4882ZM268.179 75.5466L268.47 75.0221L268.244 74.8963L267.997 74.9749L268.179 75.5466ZM251.283 80.9282L251.101 80.3565L250.811 80.449L250.714 80.738L251.283 80.9282ZM241.89 109.018L241.77 109.606L242.29 109.712L242.459 109.209L241.89 109.018ZM198.206 100.116L197.608 100.066L197.564 100.597L198.086 100.704L198.206 100.116ZM200.524 72.3489L201.122 72.3988L201.146 72.1073L200.932 71.9086L200.524 72.3489ZM185.852 58.7691L186.26 58.3287L186.032 58.1184L185.729 58.1818L185.852 58.7691ZM160.201 64.1314L159.635 64.3302L159.809 64.8262L160.324 64.7187L160.201 64.1314ZM144.841 20.407L144.596 19.8595L144.092 20.0852L144.275 20.6059L144.841 20.407ZM171.912 8.27417L172.158 8.82169L172.437 8.69661L172.5 8.39729L171.912 8.27417ZM175.816 -10.3449L176.403 -10.2218L176.464 -10.5107L176.272 -10.735L175.816 -10.3449ZM157.523 -31.7225L157.065 -32.1096L156.736 -31.7199L157.067 -31.3324L157.523 -31.7225ZM185.493 -64.8518L185.824 -65.352L185.379 -65.6471L185.034 -65.2389L185.493 -64.8518ZM208.566 -49.56L208.234 -49.0599L208.46 -48.9098L208.723 -48.9809L208.566 -49.56ZM227.141 -54.5992L227.299 -54.0202L227.58 -54.0964L227.694 -54.3644L227.141 -54.5992ZM271.042 19.5894L271.629 19.7125L271.629 19.7125L271.042 19.5894ZM245.863 -19.0764L245.982 -19.6643L245.982 -19.6643L245.863 -19.0764ZM207.197 6.57825L206.61 6.45513L206.61 6.45513L207.197 6.57825ZM279.629 -70.9896L237.625 -79.5496L237.386 -78.3737L279.389 -69.8138L279.629 -70.9896ZM278.144 -44.2822L280.107 -70.3566L278.911 -70.4467L276.947 -44.3723L278.144 -44.2822ZM291.285 -33.2363L277.938 -44.7811L277.153 -43.8735L290.5 -32.3287L291.285 -33.2363ZM319.487 -36.3641L290.83 -33.3792L290.955 -32.1857L319.612 -35.1705L319.487 -36.3641ZM334.152 5.73058L320.118 -35.9587L318.981 -35.5759L333.015 6.11343L334.152 5.73058ZM308.785 17.2557L333.821 6.47307L333.346 5.37094L308.31 16.1535L308.785 17.2557ZM305.231 35.4468L309.135 16.8277L307.96 16.5815L304.056 35.2005L305.231 35.4468ZM323.392 56.3112L305.1 34.9336L304.188 35.7138L322.481 57.0914L323.392 56.3112ZM293.732 89.8906L323.382 57.1037L322.492 56.2988L292.842 89.0858L293.732 89.8906ZM267.888 76.0712L292.996 90.0128L293.578 88.9636L268.47 75.0221L267.888 76.0712ZM251.466 81.4999L268.361 76.1183L267.997 74.9749L251.101 80.3565L251.466 81.4999ZM242.459 109.209L251.852 81.1185L250.714 80.738L241.321 108.828L242.459 109.209ZM198.086 100.704L241.77 109.606L242.01 108.43L198.326 99.5281L198.086 100.704ZM199.926 72.299L197.608 100.066L198.804 100.166L201.122 72.3988L199.926 72.299ZM185.445 59.2094L200.117 72.7893L200.932 71.9086L186.26 58.3287L185.445 59.2094ZM160.324 64.7187L185.975 59.3564L185.729 58.1818L160.078 63.544L160.324 64.7187ZM144.275 20.6059L159.635 64.3302L160.767 63.9325L145.407 20.2081L144.275 20.6059ZM171.667 7.72664L144.596 19.8595L145.087 20.9545L172.158 8.82169L171.667 7.72664ZM175.229 -10.468L171.325 8.15104L172.5 8.39729L176.403 -10.2218L175.229 -10.468ZM157.067 -31.3324L175.36 -9.9548L176.272 -10.735L157.979 -32.1126L157.067 -31.3324ZM185.034 -65.2389L157.065 -32.1096L157.982 -31.3354L185.951 -64.4648L185.034 -65.2389ZM208.897 -50.0601L185.824 -65.352L185.161 -64.3517L208.234 -49.0599L208.897 -50.0601ZM226.984 -55.1783L208.408 -50.1391L208.723 -48.9809L227.299 -54.0202L226.984 -55.1783ZM236.953 -79.1965L226.589 -54.8341L227.694 -54.3644L238.057 -78.7268L236.953 -79.1965ZM270.455 19.4663C266.798 36.9096 249.799 48.1822 232.496 44.6561L232.257 45.8319C250.215 49.4917 267.839 37.7924 271.629 19.7125L270.455 19.4663ZM245.743 -18.4884C263.042 -14.9629 274.112 2.02551 270.455 19.4663L271.629 19.7125C275.421 1.63013 263.944 -16.0039 245.982 -19.6643L245.743 -18.4884ZM207.784 6.70138C211.441 -10.7419 228.44 -22.0145 245.743 -18.4884L245.982 -19.6643C228.024 -23.3241 210.4 -11.6248 206.61 6.45513L207.784 6.70138ZM232.496 44.6561C215.197 41.1306 204.127 24.1422 207.784 6.70138L206.61 6.45513C202.818 24.5375 214.295 42.1716 232.257 45.8319L232.496 44.6561Z" fill="#BDBAFA"/>
<path fill-rule="evenodd" clip-rule="evenodd" d="M456.313 93.0026L483.001 128.98L463.551 147.869L465.964 166.158L490.238 183.846L472.458 226.037L445.63 216.936L429.801 228.677L429.288 258.059L383.753 262.834L373.868 234.472L357.065 226.857L330.468 242.125L302.713 204.708L323.601 184.752L321.56 163.956L297.981 150.214L316.133 105.516L345.468 114.989L361.297 103.248L361.81 73.8656L406.278 67.6518L413.656 95.6425L431.526 104.696L456.313 93.0026ZM366.959 186.061C378.16 201.162 399.482 204.324 414.582 193.123C429.682 181.922 432.842 160.6 421.64 145.499C410.439 130.399 389.117 127.237 374.017 138.437C358.917 149.638 355.757 170.96 366.959 186.061Z" fill="#EBEAFD"/>
<path d="M483.001 128.98L483.419 129.41L483.796 129.044L483.483 128.622L483.001 128.98ZM456.313 93.0026L456.795 92.6451L456.502 92.2501L456.057 92.46L456.313 93.0026ZM463.551 147.869L463.133 147.439L462.917 147.649L462.956 147.948L463.551 147.869ZM465.964 166.158L465.369 166.236L465.402 166.491L465.61 166.643L465.964 166.158ZM490.238 183.846L490.791 184.079L490.976 183.641L490.592 183.361L490.238 183.846ZM472.458 226.037L472.265 226.606L472.794 226.785L473.011 226.27L472.458 226.037ZM445.63 216.936L445.822 216.368L445.525 216.267L445.272 216.454L445.63 216.936ZM429.801 228.677L429.443 228.195L429.206 228.371L429.201 228.667L429.801 228.677ZM429.288 258.059L429.351 258.656L429.879 258.601L429.888 258.07L429.288 258.059ZM383.753 262.834L383.186 263.032L383.343 263.481L383.815 263.431L383.753 262.834ZM373.868 234.472L374.434 234.274L374.35 234.031L374.116 233.925L373.868 234.472ZM357.065 226.857L357.313 226.311L357.033 226.184L356.767 226.337L357.065 226.857ZM330.468 242.125L329.986 242.482L330.303 242.911L330.766 242.645L330.468 242.125ZM302.713 204.708L302.298 204.275L301.915 204.641L302.231 205.066L302.713 204.708ZM323.601 184.752L324.016 185.186L324.227 184.984L324.199 184.693L323.601 184.752ZM321.56 163.956L322.158 163.898L322.128 163.593L321.863 163.438L321.56 163.956ZM297.981 150.214L297.426 149.988L297.23 150.47L297.679 150.732L297.981 150.214ZM316.133 105.516L316.318 104.945L315.787 104.774L315.577 105.29L316.133 105.516ZM345.468 114.989L345.284 115.56L345.578 115.655L345.826 115.471L345.468 114.989ZM361.297 103.248L361.655 103.73L361.892 103.554L361.897 103.258L361.297 103.248ZM361.81 73.8656L361.727 73.2714L361.219 73.3424L361.21 73.8552L361.81 73.8656ZM406.278 67.6518L406.858 67.4989L406.722 66.9839L406.194 67.0576L406.278 67.6518ZM413.656 95.6425L413.076 95.7955L413.145 96.056L413.385 96.1778L413.656 95.6425ZM431.526 104.696L431.255 105.232L431.517 105.364L431.782 105.239L431.526 104.696ZM366.959 186.061L366.477 186.418L366.477 186.418L366.959 186.061ZM421.64 145.499L421.158 145.857L421.64 145.499ZM374.017 138.437L374.374 138.919L374.017 138.437ZM483.483 128.622L456.795 92.6451L455.832 93.3601L482.519 129.337L483.483 128.622ZM463.969 148.299L483.419 129.41L482.583 128.549L463.133 147.439L463.969 148.299ZM466.558 166.079L464.146 147.791L462.956 147.948L465.369 166.236L466.558 166.079ZM490.592 183.361L466.317 165.673L465.61 166.643L489.885 184.331L490.592 183.361ZM473.011 226.27L490.791 184.079L489.686 183.613L471.905 225.804L473.011 226.27ZM445.437 217.504L472.265 226.606L472.651 225.469L445.822 216.368L445.437 217.504ZM430.158 229.159L445.987 217.418L445.272 216.454L429.443 228.195L430.158 229.159ZM429.888 258.07L430.401 228.688L429.201 228.667L428.688 258.049L429.888 258.07ZM383.815 263.431L429.351 258.656L429.226 257.463L383.69 262.238L383.815 263.431ZM373.301 234.669L383.186 263.032L384.319 262.637L374.434 234.274L373.301 234.669ZM356.818 227.404L373.62 235.018L374.116 233.925L357.313 226.311L356.818 227.404ZM330.766 242.645L357.364 227.377L356.767 226.337L330.169 241.604L330.766 242.645ZM302.231 205.066L329.986 242.482L330.949 241.767L303.194 204.351L302.231 205.066ZM323.187 184.318L302.298 204.275L303.127 205.142L324.016 185.186L323.187 184.318ZM320.963 164.015L323.004 184.81L324.199 184.693L322.158 163.898L320.963 164.015ZM297.679 150.732L321.258 164.475L321.863 163.438L298.284 149.695L297.679 150.732ZM315.577 105.29L297.426 149.988L298.537 150.439L316.689 105.742L315.577 105.29ZM345.653 114.418L316.318 104.945L315.949 106.087L345.284 115.56L345.653 114.418ZM360.94 102.766L345.111 114.507L345.826 115.471L361.655 103.73L360.94 102.766ZM361.21 73.8552L360.697 103.237L361.897 103.258L362.41 73.8761L361.21 73.8552ZM406.194 67.0576L361.727 73.2714L361.893 74.4599L406.361 68.246L406.194 67.0576ZM414.236 95.4896L406.858 67.4989L405.697 67.8047L413.076 95.7955L414.236 95.4896ZM431.797 104.161L413.927 95.1073L413.385 96.1778L431.255 105.232L431.797 104.161ZM456.057 92.46L431.27 104.154L431.782 105.239L456.569 93.5452L456.057 92.46ZM414.224 192.641C399.391 203.644 378.445 200.538 367.44 185.703L366.477 186.418C377.876 201.785 399.573 205.003 414.939 193.605L414.224 192.641ZM421.158 145.857C432.163 160.692 429.058 181.638 414.224 192.641L414.939 193.605C430.305 182.207 433.521 160.509 422.122 145.142L421.158 145.857ZM374.374 138.919C389.208 127.916 410.154 131.022 421.158 145.857L422.122 145.142C410.723 129.775 389.026 126.557 373.659 137.956L374.374 138.919ZM367.44 185.703C356.436 170.869 359.541 149.923 374.374 138.919L373.659 137.956C358.293 149.354 355.078 171.051 366.477 186.418L367.44 185.703Z" fill="#BDBAFA"/>
<path fill-rule="evenodd" clip-rule="evenodd" d="M138 112.057L138 93.1887L149.321 91.6792L153.094 84.8868L149.321 72.8113L165.925 63L172.717 72.8113L181.019 72.8113L188.566 63L205.17 72.8113L201.396 84.8868L205.17 91.6792L218 93.1887L218 112.811L205.925 114.321L201.396 121.868L205.925 132.434L188.566 143L181.019 132.434L172.717 132.434L165.17 142.245L148.566 133.189L153.094 121.868L149.321 114.321L138 112.057ZM191.585 103C191.585 95.0804 185.165 88.6604 177.245 88.6604C169.326 88.6604 162.906 95.0804 162.906 103C162.906 110.92 169.326 117.34 177.245 117.34C185.165 117.34 191.585 110.92 191.585 103Z" fill="#BDBAFA"/>
<path fill-rule="evenodd" clip-rule="evenodd" d="M277 112.057L277 93.1887L288.321 91.6792L292.094 84.8868L288.321 72.8113L304.925 63L311.717 72.8113L320.019 72.8113L327.566 63L344.17 72.8113L340.396 84.8868L344.17 91.6792L357 93.1887L357 112.811L344.925 114.321L340.396 121.868L344.925 132.434L327.566 143L320.019 132.434L311.717 132.434L304.17 142.245L287.566 133.189L292.094 121.868L288.321 114.321L277 112.057ZM330.585 103C330.585 95.0804 324.165 88.6604 316.245 88.6604C308.326 88.6604 301.906 95.0804 301.906 103C301.906 110.92 308.326 117.34 316.245 117.34C324.165 117.34 330.585 110.92 330.585 103Z" fill="#BDBAFA"/>
<g filter="url(#filter0_d_42_343)">
<path fill-rule="evenodd" clip-rule="evenodd" d="M234.028 44H262.094L264.34 60.8396L274.443 66.4528L292.406 60.8396L307 85.5377L292.406 95.6415V107.991L307 119.217L292.406 143.915L274.443 138.302L264.34 143.915L262.094 163H232.906L230.66 145.038L219.434 138.302L203.717 145.038L188 119.217L203.717 107.991V95.6415L189.123 84.4151L202.594 59.717L219.434 66.4528L230.66 60.8396L234.028 44ZM247.5 123.708C259.28 123.708 268.83 114.158 268.83 102.377C268.83 90.597 259.28 81.0472 247.5 81.0472C235.72 81.0472 226.17 90.597 226.17 102.377C226.17 114.158 235.72 123.708 247.5 123.708Z" fill="#6442E5"/>
<path d="M262.094 44L262.689 43.9207L262.62 43.4H262.094V44ZM234.028 44V43.4H233.536L233.44 43.8823L234.028 44ZM264.34 60.8396L263.745 60.9189L263.785 61.2177L264.048 61.3641L264.34 60.8396ZM274.443 66.4528L274.152 66.9773L274.377 67.1022L274.622 67.0255L274.443 66.4528ZM292.406 60.8396L292.922 60.5344L292.68 60.1252L292.227 60.2669L292.406 60.8396ZM307 85.5377L307.342 86.0311L307.801 85.7132L307.517 85.2325L307 85.5377ZM292.406 95.6415L292.064 95.1482L291.806 95.3271V95.6415H292.406ZM292.406 107.991H291.806V108.286L292.04 108.466L292.406 107.991ZM307 119.217L307.517 119.522L307.787 119.065L307.366 118.741L307 119.217ZM292.406 143.915L292.227 144.488L292.68 144.63L292.922 144.22L292.406 143.915ZM274.443 138.302L274.622 137.729L274.377 137.652L274.152 137.777L274.443 138.302ZM264.34 143.915L264.048 143.391L263.78 143.54L263.744 143.845L264.34 143.915ZM262.094 163V163.6H262.628L262.69 163.07L262.094 163ZM232.906 163L232.31 163.074L232.376 163.6H232.906V163ZM230.66 145.038L231.256 144.963L231.22 144.674L230.969 144.523L230.66 145.038ZM219.434 138.302L219.743 137.787L219.48 137.63L219.198 137.75L219.434 138.302ZM203.717 145.038L203.204 145.35L203.475 145.794L203.953 145.589L203.717 145.038ZM188 119.217L187.651 118.729L187.198 119.053L187.487 119.529L188 119.217ZM203.717 107.991L204.066 108.479L204.317 108.299V107.991H203.717ZM203.717 95.6415H204.317V95.3461L204.083 95.1659L203.717 95.6415ZM189.123 84.4151L188.596 84.1278L188.35 84.578L188.757 84.8907L189.123 84.4151ZM202.594 59.717L202.817 59.1599L202.323 58.9621L202.068 59.4297L202.594 59.717ZM219.434 66.4528L219.211 67.0099L219.461 67.11L219.702 66.9895L219.434 66.4528ZM230.66 60.8396L230.929 61.3763L231.191 61.245L231.249 60.9573L230.66 60.8396ZM262.094 43.4H234.028V44.6H262.094V43.4ZM264.934 60.7603L262.689 43.9207L261.5 44.0793L263.745 60.9189L264.934 60.7603ZM274.735 65.9283L264.631 60.3151L264.048 61.3641L274.152 66.9773L274.735 65.9283ZM292.227 60.2669L274.264 65.8801L274.622 67.0255L292.585 61.4123L292.227 60.2669ZM307.517 85.2325L292.922 60.5344L291.889 61.1449L306.483 85.843L307.517 85.2325ZM292.747 96.1348L307.342 86.0311L306.658 85.0444L292.064 95.1482L292.747 96.1348ZM293.006 107.991V95.6415H291.806V107.991H293.006ZM307.366 118.741L292.771 107.515L292.04 108.466L306.634 119.693L307.366 118.741ZM292.922 144.22L307.517 119.522L306.483 118.912L291.889 143.61L292.922 144.22ZM274.264 138.875L292.227 144.488L292.585 143.342L274.622 137.729L274.264 138.875ZM264.631 144.44L274.735 138.826L274.152 137.777L264.048 143.391L264.631 144.44ZM262.69 163.07L264.936 143.985L263.744 143.845L261.498 162.93L262.69 163.07ZM232.906 163.6H262.094V162.4H232.906V163.6ZM230.065 145.112L232.31 163.074L233.501 162.926L231.256 144.963L230.065 145.112ZM219.125 138.816L230.352 145.552L230.969 144.523L219.743 137.787L219.125 138.816ZM203.953 145.589L219.67 138.853L219.198 137.75L203.481 144.486L203.953 145.589ZM187.487 119.529L203.204 145.35L204.23 144.726L188.513 118.905L187.487 119.529ZM203.368 107.502L187.651 118.729L188.349 119.705L204.066 108.479L203.368 107.502ZM203.117 95.6415V107.991H204.317V95.6415H203.117ZM188.757 84.8907L203.351 96.1171L204.083 95.1659L189.488 83.9395L188.757 84.8907ZM202.068 59.4297L188.596 84.1278L189.649 84.7024L203.121 60.0043L202.068 59.4297ZM219.657 65.8957L202.817 59.1599L202.372 60.2741L219.211 67.0099L219.657 65.8957ZM230.392 60.303L219.166 65.9162L219.702 66.9895L230.929 61.3763L230.392 60.303ZM233.44 43.8823L230.072 60.722L231.249 60.9573L234.617 44.1177L233.44 43.8823ZM268.23 102.377C268.23 113.826 258.949 123.108 247.5 123.108V124.308C259.612 124.308 269.43 114.489 269.43 102.377H268.23ZM247.5 81.6472C258.949 81.6472 268.23 90.9284 268.23 102.377H269.43C269.43 90.2656 259.612 80.4472 247.5 80.4472V81.6472ZM226.77 102.377C226.77 90.9284 236.051 81.6472 247.5 81.6472V80.4472C235.388 80.4472 225.57 90.2656 225.57 102.377H226.77ZM247.5 123.108C236.051 123.108 226.77 113.826 226.77 102.377H225.57C225.57 114.489 235.388 124.308 247.5 124.308V123.108Z" fill="#4627B0"/>
</g>
</g>
</g>
<defs>
<filter id="filter0_d_42_343" x="184.197" y="40.4" width="128.604" height="128.2" filterUnits="userSpaceOnUse" color-interpolation-filters="sRGB">
<feFlood flood-opacity="0" result="BackgroundImageFix"/>
<feColorMatrix in="SourceAlpha" type="matrix" values="0 0 0 0 0 0 0 0 0 0 0 0 0 0 0 0 0 0 127 0" result="hardAlpha"/>
<feOffset dx="1" dy="1"/>
<feGaussianBlur stdDeviation="2"/>
<feComposite in2="hardAlpha" operator="out"/>
<feColorMatrix type="matrix" values="0 0 0 0 0.741176 0 0 0 0 0.729412 0 0 0 0 0.980392 0 0 0 0.8 0"/>
<feBlend mode="normal" in2="BackgroundImageFix" result="effect1_dropShadow_42_343"/>
<feBlend mode="normal" in="SourceGraphic" in2="effect1_dropShadow_42_343" result="shape"/>
</filter>
<radialGradient id="paint0_radial_42_343" cx="0" cy="0" r="1" gradientUnits="userSpaceOnUse" gradientTransform="translate(245.5 123) rotate(90) scale(175 240.283)">
<stop stop-color="#D9D9D9"/>
<stop offset="1" stop-color="#737373" stop-opacity="0"/>
</radialGradient>
<clipPath id="clip0_42_343">
<rect width="496" height="207" rx="16" fill="white"/>
</clipPath>
</defs>
</svg>
