<svg width="496" height="198" viewBox="0 0 496 198" fill="none" xmlns="http://www.w3.org/2000/svg">
<g clip-path="url(#clip0_102_3770)">
<mask id="mask0_102_3770" style="mask-type:alpha" maskUnits="userSpaceOnUse" x="-173" y="-49" width="843" height="238">
<rect x="-173" y="-49" width="843" height="238" fill="url(#paint0_radial_102_3770)"/>
</mask>
<g mask="url(#mask0_102_3770)">
<rect x="-143.5" y="-1.5" width="250" height="63" rx="7.5" fill="#EAE4FF"/>
<rect x="-143.5" y="-1.5" width="250" height="63" rx="7.5" stroke="url(#paint1_linear_102_3770)"/>
<rect x="-88" y="14" width="112" height="12" rx="6" fill="url(#paint2_linear_102_3770)"/>
<rect x="-88" y="34" width="179" height="12" rx="6" fill="url(#paint3_linear_102_3770)"/>
<rect x="123.5" y="-1.5" width="250" height="63" rx="7.5" fill="#EAE4FF"/>
<rect x="123.5" y="-1.5" width="250" height="63" rx="7.5" stroke="url(#paint4_linear_102_3770)"/>
<path d="M139 18C139 15.7909 140.791 14 143 14H167C169.209 14 171 15.7909 171 18V42C171 44.2091 169.209 46 167 46H143C140.791 46 139 44.2091 139 42V18Z" fill="url(#paint5_linear_102_3770)"/>
<rect x="179" y="14" width="112" height="12" rx="6" fill="url(#paint6_linear_102_3770)"/>
<rect x="179" y="34" width="179" height="12" rx="6" fill="url(#paint7_linear_102_3770)"/>
<rect x="390.5" y="-1.5" width="250" height="63" rx="7.5" fill="#EAE4FF"/>
<rect x="390.5" y="-1.5" width="250" height="63" rx="7.5" stroke="url(#paint8_linear_102_3770)"/>
<path d="M406 18C406 15.7909 407.791 14 410 14H434C436.209 14 438 15.7909 438 18V42C438 44.2091 436.209 46 434 46H410C407.791 46 406 44.2091 406 42V18Z" fill="url(#paint9_linear_102_3770)"/>
<rect x="446" y="14" width="112" height="12" rx="6" fill="url(#paint10_linear_102_3770)"/>
<rect x="446" y="34" width="179" height="12" rx="6" fill="url(#paint11_linear_102_3770)"/>
<rect x="-143.5" y="78.5" width="250" height="63" rx="7.5" fill="#EAE4FF"/>
<rect x="-143.5" y="78.5" width="250" height="63" rx="7.5" stroke="url(#paint12_linear_102_3770)"/>
<rect x="-88" y="94" width="112" height="12" rx="6" fill="url(#paint13_linear_102_3770)"/>
<rect x="-88" y="114" width="179" height="12" rx="6" fill="url(#paint14_linear_102_3770)"/>
<rect x="123.5" y="78.5" width="250" height="63" rx="7.5" fill="#EAE4FF"/>
<rect x="123.5" y="78.5" width="250" height="63" rx="7.5" stroke="url(#paint15_linear_102_3770)"/>
<path d="M139 98C139 95.7909 140.791 94 143 94H167C169.209 94 171 95.7909 171 98V122C171 124.209 169.209 126 167 126H143C140.791 126 139 124.209 139 122V98Z" fill="url(#paint16_linear_102_3770)"/>
<rect x="179" y="94" width="112" height="12" rx="6" fill="url(#paint17_linear_102_3770)"/>
<rect x="179" y="114" width="179" height="12" rx="6" fill="url(#paint18_linear_102_3770)"/>
<rect x="390.5" y="78.5" width="250" height="63" rx="7.5" fill="#EAE4FF"/>
<rect x="390.5" y="78.5" width="250" height="63" rx="7.5" stroke="url(#paint19_linear_102_3770)"/>
<path d="M406 98C406 95.7909 407.791 94 410 94H434C436.209 94 438 95.7909 438 98V122C438 124.209 436.209 126 434 126H410C407.791 126 406 124.209 406 122V98Z" fill="url(#paint20_linear_102_3770)"/>
<rect x="446" y="94" width="112" height="12" rx="6" fill="url(#paint21_linear_102_3770)"/>
<rect x="446" y="114" width="179" height="12" rx="6" fill="url(#paint22_linear_102_3770)"/>
<rect x="-143.5" y="158.5" width="250" height="63" rx="7.5" fill="#EAE4FF"/>
<rect x="-143.5" y="158.5" width="250" height="63" rx="7.5" stroke="url(#paint23_linear_102_3770)"/>
<rect x="-88" y="174" width="112" height="12" rx="6" fill="url(#paint24_linear_102_3770)"/>
<rect x="123.5" y="158.5" width="250" height="63" rx="7.5" fill="#EAE4FF"/>
<rect x="123.5" y="158.5" width="250" height="63" rx="7.5" stroke="url(#paint25_linear_102_3770)"/>
<path d="M139 178C139 175.791 140.791 174 143 174H167C169.209 174 171 175.791 171 178V202C171 204.209 169.209 206 167 206H143C140.791 206 139 204.209 139 202V178Z" fill="url(#paint26_linear_102_3770)"/>
<rect x="179" y="174" width="112" height="12" rx="6" fill="url(#paint27_linear_102_3770)"/>
<rect x="390.5" y="158.5" width="250" height="63" rx="7.5" fill="#EAE4FF"/>
<rect x="390.5" y="158.5" width="250" height="63" rx="7.5" stroke="url(#paint28_linear_102_3770)"/>
<path d="M406 178C406 175.791 407.791 174 410 174H434C436.209 174 438 175.791 438 178V202C438 204.209 436.209 206 434 206H410C407.791 206 406 204.209 406 202V178Z" fill="url(#paint29_linear_102_3770)"/>
<rect x="446" y="174" width="112" height="12" rx="6" fill="url(#paint30_linear_102_3770)"/>
</g>
<g filter="url(#filter0_d_102_3770)">
<rect x="81" y="65" width="334" height="67" rx="8" fill="#8031F6"/>
<rect x="81.5" y="65.5" width="333" height="66" rx="7.5" stroke="#5E1ABD"/>
<g filter="url(#filter1_d_102_3770)">
<path d="M97 86.5C97 84.2909 98.7909 82.5 101 82.5H125C127.209 82.5 129 84.2909 129 86.5V110.5C129 112.709 127.209 114.5 125 114.5H101C98.7909 114.5 97 112.709 97 110.5V86.5Z" fill="#8031F6"/>
<path d="M101 83H125C126.933 83 128.5 84.567 128.5 86.5V110.5C128.5 112.433 126.933 114 125 114H101C99.067 114 97.5 112.433 97.5 110.5V86.5C97.5 84.567 99.067 83 101 83Z" stroke="#A886FF"/>
<path d="M106.333 103.833H119.667M108.333 93.1666H117.667C118.403 93.1666 119 93.7636 119 94.5V99.8333C119 100.57 118.403 101.167 117.667 101.167H108.333C107.597 101.167 107 100.57 107 99.8333V94.5C107 93.7636 107.597 93.1666 108.333 93.1666Z" stroke="#A886FF" stroke-linecap="round" stroke-linejoin="round"/>
</g>
<path d="M138.078 94V83.57H141.872C142.572 83.57 143.188 83.7007 143.72 83.962C144.261 84.214 144.681 84.5873 144.98 85.082C145.279 85.5673 145.428 86.1507 145.428 86.832C145.428 87.504 145.274 88.0827 144.966 88.568C144.667 89.0533 144.252 89.4267 143.72 89.688C143.188 89.9493 142.572 90.08 141.872 90.08H139.73V94H138.078ZM139.73 88.61H141.914C142.287 88.61 142.614 88.5353 142.894 88.386C143.174 88.2367 143.393 88.0313 143.552 87.77C143.711 87.4993 143.79 87.182 143.79 86.818C143.79 86.454 143.711 86.1413 143.552 85.88C143.393 85.6093 143.174 85.404 142.894 85.264C142.614 85.1147 142.287 85.04 141.914 85.04H139.73V88.61ZM146.695 94V86.426H148.207V87.952L148.067 87.728C148.235 87.2333 148.505 86.8787 148.879 86.664C149.252 86.44 149.7 86.328 150.223 86.328H150.685V87.77H150.027C149.504 87.77 149.079 87.9333 148.753 88.26C148.435 88.5773 148.277 89.0347 148.277 89.632V94H146.695ZM155.141 94.168C154.413 94.168 153.746 93.9953 153.139 93.65C152.542 93.3047 152.066 92.8333 151.711 92.236C151.356 91.6387 151.179 90.962 151.179 90.206C151.179 89.4407 151.356 88.764 151.711 88.176C152.066 87.5787 152.542 87.112 153.139 86.776C153.736 86.4307 154.404 86.258 155.141 86.258C155.888 86.258 156.555 86.4307 157.143 86.776C157.74 87.112 158.212 87.5787 158.557 88.176C158.912 88.764 159.089 89.4407 159.089 90.206C159.089 90.9713 158.912 91.6527 158.557 92.25C158.202 92.8473 157.726 93.3187 157.129 93.664C156.532 94 155.869 94.168 155.141 94.168ZM155.141 92.698C155.589 92.698 155.986 92.5907 156.331 92.376C156.676 92.1613 156.947 91.8673 157.143 91.494C157.348 91.1113 157.451 90.682 157.451 90.206C157.451 89.73 157.348 89.3053 157.143 88.932C156.947 88.5587 156.676 88.2647 156.331 88.05C155.986 87.8353 155.589 87.728 155.141 87.728C154.702 87.728 154.306 87.8353 153.951 88.05C153.606 88.2647 153.33 88.5587 153.125 88.932C152.929 89.3053 152.831 89.73 152.831 90.206C152.831 90.682 152.929 91.1113 153.125 91.494C153.33 91.8673 153.606 92.1613 153.951 92.376C154.306 92.5907 154.702 92.698 155.141 92.698ZM163.854 94.168C163.126 94.168 162.472 93.9953 161.894 93.65C161.324 93.2953 160.872 92.8193 160.536 92.222C160.209 91.6247 160.046 90.9527 160.046 90.206C160.046 89.4593 160.214 88.7873 160.55 88.19C160.886 87.5927 161.338 87.1213 161.908 86.776C162.477 86.4307 163.121 86.258 163.84 86.258C164.446 86.258 164.983 86.3793 165.45 86.622C165.916 86.8647 166.285 87.2007 166.556 87.63L166.318 87.994V83.402H167.886V94H166.388V92.46L166.57 92.754C166.308 93.2113 165.935 93.5613 165.45 93.804C164.964 94.0467 164.432 94.168 163.854 94.168ZM164.008 92.698C164.446 92.698 164.838 92.5907 165.184 92.376C165.538 92.1613 165.814 91.8673 166.01 91.494C166.215 91.1113 166.318 90.682 166.318 90.206C166.318 89.73 166.215 89.3053 166.01 88.932C165.814 88.5587 165.538 88.2647 165.184 88.05C164.838 87.8353 164.446 87.728 164.008 87.728C163.569 87.728 163.172 87.8353 162.818 88.05C162.463 88.2647 162.188 88.5587 161.992 88.932C161.796 89.3053 161.698 89.73 161.698 90.206C161.698 90.682 161.796 91.1113 161.992 91.494C162.188 91.8673 162.458 92.1613 162.804 92.376C163.158 92.5907 163.56 92.698 164.008 92.698ZM172.154 94.168C171.585 94.168 171.086 94.042 170.656 93.79C170.227 93.5287 169.891 93.1693 169.648 92.712C169.415 92.2453 169.298 91.7087 169.298 91.102V86.426H170.88V90.962C170.88 91.3073 170.95 91.6107 171.09 91.872C171.23 92.1333 171.426 92.3387 171.678 92.488C171.93 92.628 172.22 92.698 172.546 92.698C172.882 92.698 173.176 92.6233 173.428 92.474C173.68 92.3247 173.876 92.1147 174.016 91.844C174.166 91.5733 174.24 91.256 174.24 90.892V86.426H175.808V94H174.31V92.516L174.478 92.712C174.301 93.1787 174.007 93.538 173.596 93.79C173.186 94.042 172.705 94.168 172.154 94.168ZM180.974 94.168C180.218 94.168 179.546 93.9953 178.958 93.65C178.379 93.2953 177.917 92.8193 177.572 92.222C177.236 91.6247 177.068 90.948 177.068 90.192C177.068 89.4453 177.236 88.7733 177.572 88.176C177.908 87.5787 178.37 87.112 178.958 86.776C179.546 86.4307 180.218 86.258 180.974 86.258C181.487 86.258 181.968 86.3513 182.416 86.538C182.864 86.7153 183.251 86.9627 183.578 87.28C183.914 87.5973 184.161 87.966 184.32 88.386L182.934 89.03C182.775 88.638 182.518 88.3253 182.164 88.092C181.818 87.8493 181.422 87.728 180.974 87.728C180.544 87.728 180.157 87.8353 179.812 88.05C179.476 88.2553 179.21 88.5493 179.014 88.932C178.818 89.3053 178.72 89.73 178.72 90.206C178.72 90.682 178.818 91.1113 179.014 91.494C179.21 91.8673 179.476 92.1613 179.812 92.376C180.157 92.5907 180.544 92.698 180.974 92.698C181.431 92.698 181.828 92.5813 182.164 92.348C182.509 92.1053 182.766 91.7833 182.934 91.382L184.32 92.04C184.17 92.4413 183.928 92.8053 183.592 93.132C183.265 93.4493 182.878 93.7013 182.43 93.888C181.982 94.0747 181.496 94.168 180.974 94.168ZM188.862 94.084C188.068 94.084 187.452 93.86 187.014 93.412C186.575 92.964 186.356 92.334 186.356 91.522V87.854H185.026V86.426H185.236C185.59 86.426 185.866 86.3233 186.062 86.118C186.258 85.9127 186.356 85.6327 186.356 85.278V84.69H187.938V86.426H189.66V87.854H187.938V91.452C187.938 91.7133 187.98 91.9373 188.064 92.124C188.148 92.3013 188.283 92.4413 188.47 92.544C188.656 92.6373 188.899 92.684 189.198 92.684C189.272 92.684 189.356 92.6793 189.45 92.67C189.543 92.6607 189.632 92.6513 189.716 92.642V94C189.585 94.0187 189.44 94.0373 189.282 94.056C189.123 94.0747 188.983 94.084 188.862 94.084ZM198.159 94.168C197.422 94.168 196.736 94.0327 196.101 93.762C195.476 93.4913 194.93 93.118 194.463 92.642C194.006 92.1567 193.646 91.5873 193.385 90.934C193.124 90.2807 192.993 89.562 192.993 88.778C192.993 88.0033 193.119 87.2893 193.371 86.636C193.632 85.9733 193.996 85.404 194.463 84.928C194.93 84.4427 195.476 84.0693 196.101 83.808C196.726 83.5373 197.412 83.402 198.159 83.402C198.896 83.402 199.554 83.528 200.133 83.78C200.721 84.032 201.216 84.3633 201.617 84.774C202.018 85.1753 202.308 85.614 202.485 86.09L201.001 86.79C200.777 86.23 200.418 85.7773 199.923 85.432C199.438 85.0773 198.85 84.9 198.159 84.9C197.468 84.9 196.857 85.0633 196.325 85.39C195.793 85.7167 195.378 86.1693 195.079 86.748C194.79 87.3267 194.645 88.0033 194.645 88.778C194.645 89.5527 194.79 90.234 195.079 90.822C195.378 91.4007 195.793 91.8533 196.325 92.18C196.857 92.4973 197.468 92.656 198.159 92.656C198.85 92.656 199.438 92.4833 199.923 92.138C200.418 91.7927 200.777 91.34 201.001 90.78L202.485 91.48C202.308 91.9467 202.018 92.3853 201.617 92.796C201.216 93.2067 200.721 93.538 200.133 93.79C199.554 94.042 198.896 94.168 198.159 94.168ZM205.881 94.168C205.368 94.168 204.915 94.0793 204.523 93.902C204.14 93.7153 203.842 93.4633 203.627 93.146C203.412 92.8193 203.305 92.4367 203.305 91.998C203.305 91.5873 203.394 91.2187 203.571 90.892C203.758 90.5653 204.042 90.29 204.425 90.066C204.808 89.842 205.288 89.6833 205.867 89.59L208.499 89.156V90.402L206.175 90.808C205.755 90.8827 205.447 91.018 205.251 91.214C205.055 91.4007 204.957 91.6433 204.957 91.942C204.957 92.2313 205.064 92.4693 205.279 92.656C205.503 92.8333 205.788 92.922 206.133 92.922C206.562 92.922 206.936 92.8287 207.253 92.642C207.58 92.4553 207.832 92.208 208.009 91.9C208.186 91.5827 208.275 91.2327 208.275 90.85V88.904C208.275 88.5307 208.135 88.2273 207.855 87.994C207.584 87.7513 207.22 87.63 206.763 87.63C206.343 87.63 205.974 87.742 205.657 87.966C205.349 88.1807 205.12 88.4607 204.971 88.806L203.655 88.148C203.795 87.7747 204.024 87.448 204.341 87.168C204.658 86.8787 205.027 86.6547 205.447 86.496C205.876 86.3373 206.329 86.258 206.805 86.258C207.402 86.258 207.93 86.37 208.387 86.594C208.854 86.818 209.213 87.1307 209.465 87.532C209.726 87.924 209.857 88.3813 209.857 88.904V94H208.345V92.628L208.667 92.67C208.49 92.978 208.261 93.244 207.981 93.468C207.71 93.692 207.398 93.8647 207.043 93.986C206.698 94.1073 206.31 94.168 205.881 94.168ZM211.427 94V86.426H212.939V88.064L212.743 87.812C212.901 87.2987 213.191 86.9113 213.611 86.65C214.031 86.3887 214.511 86.258 215.053 86.258C215.659 86.258 216.196 86.4213 216.663 86.748C217.139 87.0653 217.456 87.49 217.615 88.022L217.167 88.064C217.391 87.4573 217.731 87.0047 218.189 86.706C218.655 86.4073 219.187 86.258 219.785 86.258C220.307 86.258 220.779 86.3793 221.199 86.622C221.628 86.8647 221.969 87.2007 222.221 87.63C222.473 88.0593 222.599 88.5493 222.599 89.1V94H221.017V89.534C221.017 89.1513 220.947 88.8293 220.807 88.568C220.676 88.2973 220.489 88.092 220.247 87.952C220.013 87.8027 219.738 87.728 219.421 87.728C219.103 87.728 218.823 87.8027 218.581 87.952C218.338 88.092 218.147 88.2973 218.007 88.568C217.867 88.8387 217.797 89.1607 217.797 89.534V94H216.229V89.534C216.229 89.1513 216.159 88.8293 216.019 88.568C215.888 88.2973 215.701 88.092 215.459 87.952C215.225 87.8027 214.945 87.728 214.619 87.728C214.301 87.728 214.021 87.8027 213.779 87.952C213.536 88.092 213.345 88.2973 213.205 88.568C213.074 88.8387 213.009 89.1607 213.009 89.534V94H211.427ZM224.012 96.8V86.426H225.524V87.994L225.342 87.63C225.622 87.2007 225.995 86.8647 226.462 86.622C226.929 86.3793 227.461 86.258 228.058 86.258C228.777 86.258 229.421 86.4307 229.99 86.776C230.569 87.1213 231.021 87.5927 231.348 88.19C231.684 88.7873 231.852 89.4593 231.852 90.206C231.852 90.9527 231.684 91.6247 231.348 92.222C231.021 92.8193 230.573 93.2953 230.004 93.65C229.435 93.9953 228.786 94.168 228.058 94.168C227.47 94.168 226.933 94.0467 226.448 93.804C225.972 93.5613 225.603 93.2113 225.342 92.754L225.594 92.46V96.8H224.012ZM227.904 92.698C228.352 92.698 228.749 92.5907 229.094 92.376C229.439 92.1613 229.71 91.8673 229.906 91.494C230.111 91.1113 230.214 90.682 230.214 90.206C230.214 89.73 230.111 89.3053 229.906 88.932C229.71 88.5587 229.439 88.2647 229.094 88.05C228.749 87.8353 228.352 87.728 227.904 87.728C227.465 87.728 227.069 87.8353 226.714 88.05C226.369 88.2647 226.093 88.5587 225.888 88.932C225.692 89.3053 225.594 89.73 225.594 90.206C225.594 90.682 225.692 91.1113 225.888 91.494C226.093 91.8673 226.369 92.1613 226.714 92.376C227.069 92.5907 227.465 92.698 227.904 92.698ZM235.379 94.168C234.866 94.168 234.413 94.0793 234.021 93.902C233.638 93.7153 233.34 93.4633 233.125 93.146C232.91 92.8193 232.803 92.4367 232.803 91.998C232.803 91.5873 232.892 91.2187 233.069 90.892C233.256 90.5653 233.54 90.29 233.923 90.066C234.306 89.842 234.786 89.6833 235.365 89.59L237.997 89.156V90.402L235.673 90.808C235.253 90.8827 234.945 91.018 234.749 91.214C234.553 91.4007 234.455 91.6433 234.455 91.942C234.455 92.2313 234.562 92.4693 234.777 92.656C235.001 92.8333 235.286 92.922 235.631 92.922C236.06 92.922 236.434 92.8287 236.751 92.642C237.078 92.4553 237.33 92.208 237.507 91.9C237.684 91.5827 237.773 91.2327 237.773 90.85V88.904C237.773 88.5307 237.633 88.2273 237.353 87.994C237.082 87.7513 236.718 87.63 236.261 87.63C235.841 87.63 235.472 87.742 235.155 87.966C234.847 88.1807 234.618 88.4607 234.469 88.806L233.153 88.148C233.293 87.7747 233.522 87.448 233.839 87.168C234.156 86.8787 234.525 86.6547 234.945 86.496C235.374 86.3373 235.827 86.258 236.303 86.258C236.9 86.258 237.428 86.37 237.885 86.594C238.352 86.818 238.711 87.1307 238.963 87.532C239.224 87.924 239.355 88.3813 239.355 88.904V94H237.843V92.628L238.165 92.67C237.988 92.978 237.759 93.244 237.479 93.468C237.208 93.692 236.896 93.8647 236.541 93.986C236.196 94.1073 235.808 94.168 235.379 94.168ZM240.925 94V86.426H242.507V94H240.925ZM240.925 85.39V83.57H242.507V85.39H240.925ZM247.73 97.08C247.18 97.08 246.671 96.9913 246.204 96.814C245.738 96.6367 245.336 96.3893 245 96.072C244.664 95.764 244.412 95.4 244.244 94.98L245.7 94.378C245.831 94.7327 246.069 95.0267 246.414 95.26C246.769 95.4933 247.203 95.61 247.716 95.61C248.118 95.61 248.477 95.5307 248.794 95.372C249.112 95.2227 249.364 94.9987 249.55 94.7C249.737 94.4107 249.83 94.0607 249.83 93.65V91.942L250.11 92.264C249.849 92.7493 249.485 93.118 249.018 93.37C248.561 93.622 248.043 93.748 247.464 93.748C246.764 93.748 246.134 93.5847 245.574 93.258C245.014 92.9313 244.571 92.4833 244.244 91.914C243.927 91.3447 243.768 90.7053 243.768 89.996C243.768 89.2773 243.927 88.638 244.244 88.078C244.571 87.518 245.01 87.0747 245.56 86.748C246.111 86.4213 246.741 86.258 247.45 86.258C248.029 86.258 248.542 86.384 248.99 86.636C249.448 86.8787 249.821 87.2333 250.11 87.7L249.9 88.092V86.426H251.398V93.65C251.398 94.3033 251.24 94.8867 250.922 95.4C250.614 95.9227 250.185 96.3333 249.634 96.632C249.084 96.9307 248.449 97.08 247.73 97.08ZM247.646 92.278C248.066 92.278 248.44 92.18 248.766 91.984C249.093 91.7787 249.35 91.508 249.536 91.172C249.732 90.8267 249.83 90.4393 249.83 90.01C249.83 89.5807 249.732 89.1933 249.536 88.848C249.34 88.5027 249.079 88.232 248.752 88.036C248.426 87.8307 248.057 87.728 247.646 87.728C247.217 87.728 246.834 87.8307 246.498 88.036C246.162 88.232 245.896 88.5027 245.7 88.848C245.514 89.184 245.42 89.5713 245.42 90.01C245.42 90.43 245.514 90.8127 245.7 91.158C245.896 91.5033 246.162 91.7787 246.498 91.984C246.834 92.18 247.217 92.278 247.646 92.278ZM252.97 94V86.426H254.482V87.91L254.3 87.714C254.487 87.238 254.785 86.8787 255.196 86.636C255.607 86.384 256.083 86.258 256.624 86.258C257.184 86.258 257.679 86.3793 258.108 86.622C258.537 86.8647 258.873 87.2007 259.116 87.63C259.359 88.0593 259.48 88.554 259.48 89.114V94H257.912V89.534C257.912 89.1513 257.842 88.8293 257.702 88.568C257.562 88.2973 257.361 88.092 257.1 87.952C256.848 87.8027 256.559 87.728 256.232 87.728C255.905 87.728 255.611 87.8027 255.35 87.952C255.098 88.092 254.902 88.2973 254.762 88.568C254.622 88.8387 254.552 89.1607 254.552 89.534V94H252.97Z" fill="#EAE4FF"/>
<path d="M137.996 115V106.06H140.924C141.828 106.06 142.616 106.244 143.288 106.612C143.96 106.98 144.48 107.5 144.848 108.172C145.216 108.836 145.4 109.62 145.4 110.524C145.4 111.42 145.216 112.204 144.848 112.876C144.48 113.548 143.96 114.072 143.288 114.448C142.616 114.816 141.828 115 140.924 115H137.996ZM139.172 113.92H140.936C141.6 113.92 142.172 113.78 142.652 113.5C143.14 113.22 143.516 112.828 143.78 112.324C144.044 111.812 144.176 111.212 144.176 110.524C144.176 109.828 144.04 109.228 143.768 108.724C143.504 108.22 143.128 107.832 142.64 107.56C142.16 107.28 141.592 107.14 140.936 107.14H139.172V113.92ZM146.519 115V108.532H147.635V115H146.519ZM146.519 107.5V106.06H147.635V107.5H146.519ZM151.442 115.144C150.794 115.144 150.23 114.984 149.75 114.664C149.27 114.344 148.93 113.912 148.73 113.368L149.618 112.936C149.802 113.32 150.054 113.624 150.374 113.848C150.694 114.072 151.05 114.184 151.442 114.184C151.794 114.184 152.086 114.1 152.318 113.932C152.55 113.764 152.666 113.544 152.666 113.272C152.666 113.08 152.61 112.928 152.498 112.816C152.394 112.696 152.266 112.604 152.114 112.54C151.962 112.468 151.822 112.416 151.694 112.384L150.722 112.108C150.138 111.94 149.71 111.7 149.438 111.388C149.174 111.076 149.042 110.712 149.042 110.296C149.042 109.912 149.138 109.58 149.33 109.3C149.53 109.012 149.798 108.788 150.134 108.628C150.478 108.468 150.862 108.388 151.286 108.388C151.854 108.388 152.362 108.532 152.81 108.82C153.266 109.108 153.59 109.512 153.782 110.032L152.87 110.452C152.726 110.116 152.51 109.852 152.222 109.66C151.934 109.46 151.61 109.36 151.25 109.36C150.922 109.36 150.662 109.444 150.47 109.612C150.278 109.772 150.182 109.976 150.182 110.224C150.182 110.408 150.23 110.56 150.326 110.68C150.422 110.792 150.538 110.88 150.674 110.944C150.81 111 150.942 111.048 151.07 111.088L152.126 111.4C152.654 111.552 153.062 111.788 153.35 112.108C153.646 112.428 153.794 112.812 153.794 113.26C153.794 113.62 153.694 113.944 153.494 114.232C153.294 114.52 153.018 114.744 152.666 114.904C152.314 115.064 151.906 115.144 151.442 115.144ZM158.015 115.144C157.383 115.144 156.819 114.996 156.323 114.7C155.835 114.404 155.451 114 155.171 113.488C154.891 112.976 154.751 112.4 154.751 111.76C154.751 111.112 154.891 110.536 155.171 110.032C155.451 109.528 155.835 109.128 156.323 108.832C156.819 108.536 157.383 108.388 158.015 108.388C158.439 108.388 158.835 108.464 159.203 108.616C159.571 108.768 159.895 108.972 160.175 109.228C160.455 109.484 160.659 109.784 160.787 110.128L159.791 110.608C159.639 110.272 159.407 110 159.095 109.792C158.783 109.576 158.423 109.468 158.015 109.468C157.623 109.468 157.267 109.568 156.947 109.768C156.635 109.968 156.387 110.24 156.203 110.584C156.019 110.928 155.927 111.324 155.927 111.772C155.927 112.204 156.019 112.596 156.203 112.948C156.387 113.292 156.635 113.564 156.947 113.764C157.267 113.964 157.623 114.064 158.015 114.064C158.423 114.064 158.783 113.96 159.095 113.752C159.407 113.536 159.639 113.252 159.791 112.9L160.787 113.404C160.659 113.74 160.455 114.04 160.175 114.304C159.895 114.56 159.571 114.764 159.203 114.916C158.835 115.068 158.439 115.144 158.015 115.144ZM165.078 115.144C164.454 115.144 163.89 115 163.386 114.712C162.882 114.416 162.482 114.012 162.186 113.5C161.89 112.988 161.742 112.408 161.742 111.76C161.742 111.112 161.886 110.536 162.174 110.032C162.47 109.528 162.87 109.128 163.374 108.832C163.878 108.536 164.446 108.388 165.078 108.388C165.702 108.388 166.266 108.536 166.77 108.832C167.274 109.12 167.67 109.516 167.958 110.02C168.254 110.524 168.402 111.104 168.402 111.76C168.402 112.416 168.25 113 167.946 113.512C167.642 114.016 167.238 114.416 166.734 114.712C166.238 115 165.686 115.144 165.078 115.144ZM165.078 114.064C165.478 114.064 165.838 113.964 166.158 113.764C166.486 113.564 166.742 113.288 166.926 112.936C167.118 112.584 167.214 112.192 167.214 111.76C167.214 111.32 167.118 110.932 166.926 110.596C166.742 110.252 166.486 109.98 166.158 109.78C165.838 109.572 165.478 109.468 165.078 109.468C164.67 109.468 164.302 109.572 163.974 109.78C163.654 109.98 163.398 110.252 163.206 110.596C163.014 110.932 162.918 111.32 162.918 111.76C162.918 112.192 163.014 112.584 163.206 112.936C163.398 113.288 163.654 113.564 163.974 113.764C164.302 113.964 164.67 114.064 165.078 114.064ZM171.3 115L168.768 108.532H170.016L172.044 114.004H171.612L173.652 108.532H174.9L172.356 115H171.3ZM178.517 115.144C177.893 115.144 177.337 114.996 176.849 114.7C176.361 114.404 175.977 114 175.697 113.488C175.417 112.968 175.277 112.388 175.277 111.748C175.277 111.1 175.413 110.524 175.685 110.02C175.965 109.516 176.341 109.12 176.813 108.832C177.293 108.536 177.829 108.388 178.421 108.388C178.901 108.388 179.325 108.476 179.693 108.652C180.069 108.82 180.385 109.052 180.641 109.348C180.905 109.636 181.105 109.968 181.241 110.344C181.385 110.712 181.457 111.096 181.457 111.496C181.457 111.584 181.449 111.684 181.433 111.796C181.425 111.9 181.413 112 181.397 112.096H176.093V111.136H180.749L180.221 111.568C180.293 111.152 180.253 110.78 180.101 110.452C179.949 110.124 179.725 109.864 179.429 109.672C179.133 109.48 178.797 109.384 178.421 109.384C178.045 109.384 177.701 109.48 177.389 109.672C177.077 109.864 176.833 110.14 176.657 110.5C176.489 110.852 176.421 111.272 176.453 111.76C176.421 112.232 176.493 112.648 176.669 113.008C176.853 113.36 177.109 113.636 177.437 113.836C177.773 114.028 178.137 114.124 178.529 114.124C178.961 114.124 179.325 114.024 179.621 113.824C179.917 113.624 180.157 113.368 180.341 113.056L181.277 113.536C181.149 113.832 180.949 114.104 180.677 114.352C180.413 114.592 180.097 114.784 179.729 114.928C179.369 115.072 178.965 115.144 178.517 115.144ZM182.672 115V108.532H183.764V109.72L183.644 109.552C183.796 109.184 184.028 108.912 184.34 108.736C184.652 108.552 185.032 108.46 185.48 108.46H185.876V109.516H185.312C184.856 109.516 184.488 109.66 184.208 109.948C183.928 110.228 183.788 110.628 183.788 111.148V115H182.672ZM188.81 117.64C188.666 117.64 188.522 117.628 188.378 117.604C188.234 117.58 188.098 117.54 187.97 117.484V116.488C188.058 116.504 188.166 116.52 188.294 116.536C188.43 116.56 188.562 116.572 188.69 116.572C189.066 116.572 189.35 116.488 189.542 116.32C189.742 116.16 189.93 115.88 190.106 115.48L190.514 114.508L190.49 115.48L187.73 108.532H188.942L191.09 114.052H190.73L192.866 108.532H194.102L191.186 115.768C191.05 116.112 190.874 116.424 190.658 116.704C190.45 116.992 190.194 117.22 189.89 117.388C189.586 117.556 189.226 117.64 188.81 117.64ZM197.809 115.144C197.185 115.144 196.621 115 196.117 114.712C195.613 114.416 195.213 114.012 194.917 113.5C194.621 112.988 194.473 112.408 194.473 111.76C194.473 111.112 194.617 110.536 194.905 110.032C195.201 109.528 195.601 109.128 196.105 108.832C196.609 108.536 197.177 108.388 197.809 108.388C198.433 108.388 198.997 108.536 199.501 108.832C200.005 109.12 200.401 109.516 200.689 110.02C200.985 110.524 201.133 111.104 201.133 111.76C201.133 112.416 200.981 113 200.677 113.512C200.373 114.016 199.969 114.416 199.465 114.712C198.969 115 198.417 115.144 197.809 115.144ZM197.809 114.064C198.209 114.064 198.569 113.964 198.889 113.764C199.217 113.564 199.473 113.288 199.657 112.936C199.849 112.584 199.945 112.192 199.945 111.76C199.945 111.32 199.849 110.932 199.657 110.596C199.473 110.252 199.217 109.98 198.889 109.78C198.569 109.572 198.209 109.468 197.809 109.468C197.401 109.468 197.033 109.572 196.705 109.78C196.385 109.98 196.129 110.252 195.937 110.596C195.745 110.932 195.649 111.32 195.649 111.76C195.649 112.192 195.745 112.584 195.937 112.936C196.129 113.288 196.385 113.564 196.705 113.764C197.033 113.964 197.401 114.064 197.809 114.064ZM204.641 115.144C204.177 115.144 203.757 115.036 203.381 114.82C203.013 114.604 202.725 114.304 202.517 113.92C202.317 113.528 202.217 113.08 202.217 112.576V108.532H203.333V112.456C203.333 112.776 203.397 113.056 203.525 113.296C203.661 113.536 203.845 113.724 204.077 113.86C204.317 113.996 204.589 114.064 204.893 114.064C205.197 114.064 205.465 113.996 205.697 113.86C205.937 113.724 206.121 113.528 206.249 113.272C206.385 113.016 206.453 112.712 206.453 112.36V108.532H207.581V115H206.489V113.74L206.669 113.848C206.517 114.256 206.257 114.576 205.889 114.808C205.529 115.032 205.113 115.144 204.641 115.144ZM209.07 115V108.532H210.162V109.72L210.042 109.552C210.194 109.184 210.426 108.912 210.738 108.736C211.05 108.552 211.43 108.46 211.878 108.46H212.274V109.516H211.71C211.254 109.516 210.886 109.66 210.606 109.948C210.326 110.228 210.186 110.628 210.186 111.148V115H209.07ZM217.151 115.144C216.687 115.144 216.267 115.036 215.891 114.82C215.523 114.604 215.235 114.304 215.027 113.92C214.827 113.528 214.727 113.08 214.727 112.576V108.532H215.843V112.456C215.843 112.776 215.907 113.056 216.035 113.296C216.171 113.536 216.355 113.724 216.587 113.86C216.827 113.996 217.099 114.064 217.403 114.064C217.707 114.064 217.975 113.996 218.207 113.86C218.447 113.724 218.631 113.528 218.759 113.272C218.895 113.016 218.963 112.712 218.963 112.36V108.532H220.091V115H218.999V113.74L219.179 113.848C219.027 114.256 218.767 114.576 218.399 114.808C218.039 115.032 217.623 115.144 217.151 115.144ZM221.58 115V105.916H222.696V115H221.58ZM226.816 115.072C226.184 115.072 225.696 114.892 225.352 114.532C225.016 114.172 224.848 113.664 224.848 113.008V109.6H223.672V108.532H223.912C224.2 108.532 224.428 108.444 224.596 108.268C224.764 108.092 224.848 107.86 224.848 107.572V107.044H225.964V108.532H227.416V109.6H225.964V112.972C225.964 113.188 225.996 113.376 226.06 113.536C226.132 113.696 226.248 113.824 226.408 113.92C226.568 114.008 226.78 114.052 227.044 114.052C227.1 114.052 227.168 114.048 227.248 114.04C227.336 114.032 227.416 114.024 227.488 114.016V115C227.384 115.024 227.268 115.04 227.14 115.048C227.012 115.064 226.904 115.072 226.816 115.072ZM228.706 115V108.532H229.822V115H228.706ZM228.706 107.5V106.06H229.822V107.5H228.706ZM231.314 115V108.532H232.406V109.852L232.25 109.648C232.41 109.24 232.666 108.928 233.018 108.712C233.37 108.496 233.766 108.388 234.206 108.388C234.71 108.388 235.162 108.528 235.562 108.808C235.97 109.088 236.25 109.456 236.402 109.912L236.09 109.924C236.258 109.42 236.542 109.04 236.942 108.784C237.342 108.52 237.786 108.388 238.274 108.388C238.722 108.388 239.126 108.492 239.486 108.7C239.854 108.908 240.146 109.196 240.362 109.564C240.578 109.932 240.686 110.348 240.686 110.812V115H239.558V111.172C239.558 110.812 239.494 110.508 239.366 110.26C239.238 110.012 239.062 109.82 238.838 109.684C238.622 109.54 238.366 109.468 238.07 109.468C237.782 109.468 237.522 109.54 237.29 109.684C237.066 109.82 236.886 110.016 236.75 110.272C236.622 110.52 236.558 110.82 236.558 111.172V115H235.43V111.172C235.43 110.812 235.366 110.508 235.238 110.26C235.11 110.012 234.934 109.82 234.71 109.684C234.494 109.54 234.238 109.468 233.942 109.468C233.654 109.468 233.394 109.54 233.162 109.684C232.938 109.82 232.758 110.016 232.622 110.272C232.494 110.52 232.43 110.82 232.43 111.172V115H231.314ZM243.927 115.144C243.503 115.144 243.127 115.068 242.799 114.916C242.479 114.756 242.227 114.54 242.043 114.268C241.859 113.988 241.767 113.668 241.767 113.308C241.767 112.964 241.839 112.656 241.983 112.384C242.135 112.104 242.367 111.868 242.679 111.676C242.999 111.484 243.399 111.348 243.879 111.268L246.279 110.872V111.808L244.131 112.168C243.715 112.24 243.411 112.372 243.219 112.564C243.035 112.756 242.943 112.992 242.943 113.272C242.943 113.536 243.047 113.756 243.255 113.932C243.471 114.108 243.739 114.196 244.059 114.196C244.467 114.196 244.819 114.112 245.115 113.944C245.419 113.768 245.655 113.532 245.823 113.236C245.999 112.94 246.087 112.612 246.087 112.252V110.608C246.087 110.256 245.955 109.972 245.691 109.756C245.435 109.532 245.095 109.42 244.671 109.42C244.303 109.42 243.975 109.516 243.687 109.708C243.407 109.892 243.199 110.14 243.063 110.452L242.091 109.948C242.211 109.652 242.403 109.388 242.667 109.156C242.931 108.916 243.239 108.728 243.591 108.592C243.943 108.456 244.311 108.388 244.695 108.388C245.191 108.388 245.627 108.484 246.003 108.676C246.379 108.86 246.671 109.12 246.879 109.456C247.095 109.784 247.203 110.168 247.203 110.608V115H246.111V113.776L246.315 113.848C246.179 114.104 245.995 114.328 245.763 114.52C245.531 114.712 245.259 114.864 244.947 114.976C244.635 115.088 244.295 115.144 243.927 115.144ZM251.204 115.072C250.572 115.072 250.084 114.892 249.74 114.532C249.404 114.172 249.236 113.664 249.236 113.008V109.6H248.06V108.532H248.3C248.588 108.532 248.816 108.444 248.984 108.268C249.152 108.092 249.236 107.86 249.236 107.572V107.044H250.352V108.532H251.804V109.6H250.352V112.972C250.352 113.188 250.384 113.376 250.448 113.536C250.52 113.696 250.636 113.824 250.796 113.92C250.956 114.008 251.168 114.052 251.432 114.052C251.488 114.052 251.556 114.048 251.636 114.04C251.724 114.032 251.804 114.024 251.876 114.016V115C251.772 115.024 251.656 115.04 251.528 115.048C251.4 115.064 251.292 115.072 251.204 115.072ZM255.894 115.144C255.27 115.144 254.714 114.996 254.226 114.7C253.738 114.404 253.354 114 253.074 113.488C252.794 112.968 252.654 112.388 252.654 111.748C252.654 111.1 252.79 110.524 253.062 110.02C253.342 109.516 253.718 109.12 254.19 108.832C254.67 108.536 255.206 108.388 255.798 108.388C256.278 108.388 256.702 108.476 257.07 108.652C257.446 108.82 257.762 109.052 258.018 109.348C258.282 109.636 258.482 109.968 258.618 110.344C258.762 110.712 258.834 111.096 258.834 111.496C258.834 111.584 258.826 111.684 258.81 111.796C258.802 111.9 258.79 112 258.774 112.096H253.47V111.136H258.126L257.598 111.568C257.67 111.152 257.63 110.78 257.478 110.452C257.326 110.124 257.102 109.864 256.806 109.672C256.51 109.48 256.174 109.384 255.798 109.384C255.422 109.384 255.078 109.48 254.766 109.672C254.454 109.864 254.21 110.14 254.034 110.5C253.866 110.852 253.798 111.272 253.83 111.76C253.798 112.232 253.87 112.648 254.046 113.008C254.23 113.36 254.486 113.636 254.814 113.836C255.15 114.028 255.514 114.124 255.906 114.124C256.338 114.124 256.702 114.024 256.998 113.824C257.294 113.624 257.534 113.368 257.718 113.056L258.654 113.536C258.526 113.832 258.326 114.104 258.054 114.352C257.79 114.592 257.474 114.784 257.106 114.928C256.746 115.072 256.342 115.144 255.894 115.144ZM264.199 115.144C263.551 115.144 262.987 114.984 262.507 114.664C262.027 114.344 261.687 113.912 261.487 113.368L262.375 112.936C262.559 113.32 262.811 113.624 263.131 113.848C263.451 114.072 263.807 114.184 264.199 114.184C264.551 114.184 264.843 114.1 265.075 113.932C265.307 113.764 265.423 113.544 265.423 113.272C265.423 113.08 265.367 112.928 265.255 112.816C265.151 112.696 265.023 112.604 264.871 112.54C264.719 112.468 264.579 112.416 264.451 112.384L263.479 112.108C262.895 111.94 262.467 111.7 262.195 111.388C261.931 111.076 261.799 110.712 261.799 110.296C261.799 109.912 261.895 109.58 262.087 109.3C262.287 109.012 262.555 108.788 262.891 108.628C263.235 108.468 263.619 108.388 264.043 108.388C264.611 108.388 265.119 108.532 265.567 108.82C266.023 109.108 266.347 109.512 266.539 110.032L265.627 110.452C265.483 110.116 265.267 109.852 264.979 109.66C264.691 109.46 264.367 109.36 264.007 109.36C263.679 109.36 263.419 109.444 263.227 109.612C263.035 109.772 262.939 109.976 262.939 110.224C262.939 110.408 262.987 110.56 263.083 110.68C263.179 110.792 263.295 110.88 263.431 110.944C263.567 111 263.699 111.048 263.827 111.088L264.883 111.4C265.411 111.552 265.819 111.788 266.107 112.108C266.403 112.428 266.551 112.812 266.551 113.26C266.551 113.62 266.451 113.944 266.251 114.232C266.051 114.52 265.775 114.744 265.423 114.904C265.071 115.064 264.663 115.144 264.199 115.144ZM270.844 115.144C270.22 115.144 269.656 115 269.152 114.712C268.648 114.416 268.248 114.012 267.952 113.5C267.656 112.988 267.508 112.408 267.508 111.76C267.508 111.112 267.652 110.536 267.94 110.032C268.236 109.528 268.636 109.128 269.14 108.832C269.644 108.536 270.212 108.388 270.844 108.388C271.468 108.388 272.032 108.536 272.536 108.832C273.04 109.12 273.436 109.516 273.724 110.02C274.02 110.524 274.168 111.104 274.168 111.76C274.168 112.416 274.016 113 273.712 113.512C273.408 114.016 273.004 114.416 272.5 114.712C272.004 115 271.452 115.144 270.844 115.144ZM270.844 114.064C271.244 114.064 271.604 113.964 271.924 113.764C272.252 113.564 272.508 113.288 272.692 112.936C272.884 112.584 272.98 112.192 272.98 111.76C272.98 111.32 272.884 110.932 272.692 110.596C272.508 110.252 272.252 109.98 271.924 109.78C271.604 109.572 271.244 109.468 270.844 109.468C270.436 109.468 270.068 109.572 269.74 109.78C269.42 109.98 269.164 110.252 268.972 110.596C268.78 110.932 268.684 111.32 268.684 111.76C268.684 112.192 268.78 112.584 268.972 112.936C269.164 113.288 269.42 113.564 269.74 113.764C270.068 113.964 270.436 114.064 270.844 114.064ZM275.384 115V105.916H276.5V115H275.384ZM280.283 115.144C279.819 115.144 279.399 115.036 279.023 114.82C278.655 114.604 278.367 114.304 278.159 113.92C277.959 113.528 277.859 113.08 277.859 112.576V108.532H278.975V112.456C278.975 112.776 279.039 113.056 279.167 113.296C279.303 113.536 279.487 113.724 279.719 113.86C279.959 113.996 280.231 114.064 280.535 114.064C280.839 114.064 281.107 113.996 281.339 113.86C281.579 113.724 281.763 113.528 281.891 113.272C282.027 113.016 282.095 112.712 282.095 112.36V108.532H283.223V115H282.131V113.74L282.311 113.848C282.159 114.256 281.899 114.576 281.531 114.808C281.171 115.032 280.755 115.144 280.283 115.144ZM287.34 115.072C286.708 115.072 286.22 114.892 285.876 114.532C285.54 114.172 285.372 113.664 285.372 113.008V109.6H284.196V108.532H284.436C284.724 108.532 284.952 108.444 285.12 108.268C285.288 108.092 285.372 107.86 285.372 107.572V107.044H286.488V108.532H287.94V109.6H286.488V112.972C286.488 113.188 286.52 113.376 286.584 113.536C286.656 113.696 286.772 113.824 286.932 113.92C287.092 114.008 287.304 114.052 287.568 114.052C287.624 114.052 287.692 114.048 287.772 114.04C287.86 114.032 287.94 114.024 288.012 114.016V115C287.908 115.024 287.792 115.04 287.664 115.048C287.536 115.064 287.428 115.072 287.34 115.072ZM289.23 115V108.532H290.346V115H289.23ZM289.23 107.5V106.06H290.346V107.5H289.23ZM294.91 115.144C294.286 115.144 293.722 115 293.218 114.712C292.714 114.416 292.314 114.012 292.018 113.5C291.722 112.988 291.574 112.408 291.574 111.76C291.574 111.112 291.718 110.536 292.006 110.032C292.302 109.528 292.702 109.128 293.206 108.832C293.71 108.536 294.278 108.388 294.91 108.388C295.534 108.388 296.098 108.536 296.602 108.832C297.106 109.12 297.502 109.516 297.79 110.02C298.086 110.524 298.234 111.104 298.234 111.76C298.234 112.416 298.082 113 297.778 113.512C297.474 114.016 297.07 114.416 296.566 114.712C296.07 115 295.518 115.144 294.91 115.144ZM294.91 114.064C295.31 114.064 295.67 113.964 295.99 113.764C296.318 113.564 296.574 113.288 296.758 112.936C296.95 112.584 297.046 112.192 297.046 111.76C297.046 111.32 296.95 110.932 296.758 110.596C296.574 110.252 296.318 109.98 295.99 109.78C295.67 109.572 295.31 109.468 294.91 109.468C294.502 109.468 294.134 109.572 293.806 109.78C293.486 109.98 293.23 110.252 293.038 110.596C292.846 110.932 292.75 111.32 292.75 111.76C292.75 112.192 292.846 112.584 293.038 112.936C293.23 113.288 293.486 113.564 293.806 113.764C294.134 113.964 294.502 114.064 294.91 114.064ZM299.449 115V108.532H300.541V109.792L300.361 109.684C300.521 109.276 300.777 108.96 301.129 108.736C301.489 108.504 301.909 108.388 302.389 108.388C302.853 108.388 303.265 108.492 303.625 108.7C303.993 108.908 304.281 109.196 304.489 109.564C304.705 109.932 304.813 110.348 304.813 110.812V115H303.685V111.172C303.685 110.812 303.621 110.508 303.493 110.26C303.365 110.012 303.181 109.82 302.941 109.684C302.709 109.54 302.441 109.468 302.137 109.468C301.833 109.468 301.561 109.54 301.321 109.684C301.089 109.82 300.905 110.016 300.769 110.272C300.633 110.52 300.565 110.82 300.565 111.172V115H299.449ZM309.492 115L307.272 108.532H308.508L310.272 113.944L309.84 113.932L311.568 108.532H312.624L314.352 113.932L313.92 113.944L315.696 108.532H316.92L314.7 115H313.632L311.928 109.6H312.264L310.56 115H309.492ZM317.678 115V108.532H318.794V115H317.678ZM317.678 107.5V106.06H318.794V107.5H317.678ZM322.914 115.072C322.282 115.072 321.794 114.892 321.45 114.532C321.114 114.172 320.946 113.664 320.946 113.008V109.6H319.77V108.532H320.01C320.298 108.532 320.526 108.444 320.694 108.268C320.862 108.092 320.946 107.86 320.946 107.572V107.044H322.062V108.532H323.514V109.6H322.062V112.972C322.062 113.188 322.094 113.376 322.158 113.536C322.23 113.696 322.346 113.824 322.506 113.92C322.666 114.008 322.878 114.052 323.142 114.052C323.198 114.052 323.266 114.048 323.346 114.04C323.434 114.032 323.514 114.024 323.586 114.016V115C323.482 115.024 323.366 115.04 323.238 115.048C323.11 115.064 323.002 115.072 322.914 115.072ZM324.804 115V105.916H325.92V109.792L325.716 109.684C325.876 109.276 326.132 108.96 326.484 108.736C326.844 108.504 327.264 108.388 327.744 108.388C328.208 108.388 328.62 108.492 328.98 108.7C329.348 108.908 329.636 109.196 329.844 109.564C330.06 109.932 330.168 110.348 330.168 110.812V115H329.04V111.172C329.04 110.812 328.972 110.508 328.836 110.26C328.708 110.012 328.528 109.82 328.296 109.684C328.064 109.54 327.796 109.468 327.492 109.468C327.196 109.468 326.928 109.54 326.688 109.684C326.448 109.82 326.26 110.016 326.124 110.272C325.988 110.52 325.92 110.82 325.92 111.172V115H324.804ZM336.431 115.144C335.807 115.144 335.243 115 334.739 114.712C334.235 114.416 333.835 114.012 333.539 113.5C333.243 112.988 333.095 112.408 333.095 111.76C333.095 111.112 333.239 110.536 333.527 110.032C333.823 109.528 334.223 109.128 334.727 108.832C335.231 108.536 335.799 108.388 336.431 108.388C337.055 108.388 337.619 108.536 338.123 108.832C338.627 109.12 339.023 109.516 339.311 110.02C339.607 110.524 339.755 111.104 339.755 111.76C339.755 112.416 339.603 113 339.299 113.512C338.995 114.016 338.591 114.416 338.087 114.712C337.591 115 337.039 115.144 336.431 115.144ZM336.431 114.064C336.831 114.064 337.191 113.964 337.511 113.764C337.839 113.564 338.095 113.288 338.279 112.936C338.471 112.584 338.567 112.192 338.567 111.76C338.567 111.32 338.471 110.932 338.279 110.596C338.095 110.252 337.839 109.98 337.511 109.78C337.191 109.572 336.831 109.468 336.431 109.468C336.023 109.468 335.655 109.572 335.327 109.78C335.007 109.98 334.751 110.252 334.559 110.596C334.367 110.932 334.271 111.32 334.271 111.76C334.271 112.192 334.367 112.584 334.559 112.936C334.751 113.288 335.007 113.564 335.327 113.764C335.655 113.964 336.023 114.064 336.431 114.064ZM343.263 115.144C342.799 115.144 342.379 115.036 342.003 114.82C341.635 114.604 341.347 114.304 341.139 113.92C340.939 113.528 340.839 113.08 340.839 112.576V108.532H341.955V112.456C341.955 112.776 342.019 113.056 342.147 113.296C342.283 113.536 342.467 113.724 342.699 113.86C342.939 113.996 343.211 114.064 343.515 114.064C343.819 114.064 344.087 113.996 344.319 113.86C344.559 113.724 344.743 113.528 344.871 113.272C345.007 113.016 345.075 112.712 345.075 112.36V108.532H346.203V115H345.111V113.74L345.291 113.848C345.139 114.256 344.879 114.576 344.511 114.808C344.151 115.032 343.735 115.144 343.263 115.144ZM347.691 115V108.532H348.783V109.72L348.663 109.552C348.815 109.184 349.047 108.912 349.359 108.736C349.671 108.552 350.051 108.46 350.499 108.46H350.895V109.516H350.331C349.875 109.516 349.507 109.66 349.227 109.948C348.947 110.228 348.807 110.628 348.807 111.148V115H347.691ZM353.481 117.4V108.532H354.573V109.924L354.429 109.648C354.669 109.264 354.997 108.96 355.413 108.736C355.829 108.504 356.305 108.388 356.841 108.388C357.449 108.388 357.993 108.536 358.473 108.832C358.961 109.128 359.345 109.532 359.625 110.044C359.905 110.548 360.045 111.124 360.045 111.772C360.045 112.404 359.905 112.976 359.625 113.488C359.345 114 358.961 114.404 358.473 114.7C357.993 114.996 357.445 115.144 356.829 115.144C356.309 115.144 355.833 115.028 355.401 114.796C354.977 114.564 354.649 114.236 354.417 113.812L354.597 113.62V117.4H353.481ZM356.745 114.064C357.153 114.064 357.517 113.964 357.837 113.764C358.157 113.564 358.405 113.292 358.581 112.948C358.765 112.596 358.857 112.204 358.857 111.772C358.857 111.324 358.765 110.932 358.581 110.596C358.405 110.252 358.157 109.98 357.837 109.78C357.517 109.572 357.153 109.468 356.745 109.468C356.337 109.468 355.969 109.568 355.641 109.768C355.321 109.968 355.065 110.244 354.873 110.596C354.689 110.94 354.597 111.332 354.597 111.772C354.597 112.204 354.689 112.596 354.873 112.948C355.065 113.292 355.321 113.564 355.641 113.764C355.969 113.964 356.337 114.064 356.745 114.064ZM361.268 115V108.532H362.36V109.72L362.24 109.552C362.392 109.184 362.624 108.912 362.936 108.736C363.248 108.552 363.628 108.46 364.076 108.46H364.472V109.516H363.908C363.452 109.516 363.084 109.66 362.804 109.948C362.524 110.228 362.384 110.628 362.384 111.148V115H361.268ZM368.296 115.144C367.672 115.144 367.108 115 366.604 114.712C366.1 114.416 365.7 114.012 365.404 113.5C365.108 112.988 364.96 112.408 364.96 111.76C364.96 111.112 365.104 110.536 365.392 110.032C365.688 109.528 366.088 109.128 366.592 108.832C367.096 108.536 367.664 108.388 368.296 108.388C368.92 108.388 369.484 108.536 369.988 108.832C370.492 109.12 370.888 109.516 371.176 110.02C371.472 110.524 371.62 111.104 371.62 111.76C371.62 112.416 371.468 113 371.164 113.512C370.86 114.016 370.456 114.416 369.952 114.712C369.456 115 368.904 115.144 368.296 115.144ZM368.296 114.064C368.696 114.064 369.056 113.964 369.376 113.764C369.704 113.564 369.96 113.288 370.144 112.936C370.336 112.584 370.432 112.192 370.432 111.76C370.432 111.32 370.336 110.932 370.144 110.596C369.96 110.252 369.704 109.98 369.376 109.78C369.056 109.572 368.696 109.468 368.296 109.468C367.888 109.468 367.52 109.572 367.192 109.78C366.872 109.98 366.616 110.252 366.424 110.596C366.232 110.932 366.136 111.32 366.136 111.76C366.136 112.192 366.232 112.584 366.424 112.936C366.616 113.288 366.872 113.564 367.192 113.764C367.52 113.964 367.888 114.064 368.296 114.064ZM375.775 115.144C375.167 115.144 374.619 114.996 374.131 114.7C373.651 114.404 373.271 114 372.991 113.488C372.711 112.976 372.571 112.404 372.571 111.772C372.571 111.124 372.711 110.548 372.991 110.044C373.271 109.532 373.651 109.128 374.131 108.832C374.619 108.536 375.167 108.388 375.775 108.388C376.311 108.388 376.787 108.504 377.203 108.736C377.619 108.96 377.947 109.264 378.187 109.648L378.007 109.924V105.916H379.135V115H378.043V113.62L378.187 113.812C377.963 114.236 377.635 114.564 377.203 114.796C376.779 115.028 376.303 115.144 375.775 115.144ZM375.871 114.064C376.279 114.064 376.643 113.964 376.963 113.764C377.283 113.564 377.535 113.292 377.719 112.948C377.911 112.596 378.007 112.204 378.007 111.772C378.007 111.332 377.911 110.94 377.719 110.596C377.535 110.244 377.283 109.968 376.963 109.768C376.643 109.568 376.279 109.468 375.871 109.468C375.471 109.468 375.107 109.572 374.779 109.78C374.459 109.98 374.207 110.252 374.023 110.596C373.839 110.932 373.747 111.324 373.747 111.772C373.747 112.204 373.839 112.596 374.023 112.948C374.207 113.292 374.459 113.564 374.779 113.764C375.099 113.964 375.463 114.064 375.871 114.064ZM382.915 115.144C382.451 115.144 382.031 115.036 381.655 114.82C381.287 114.604 380.999 114.304 380.791 113.92C380.591 113.528 380.491 113.08 380.491 112.576V108.532H381.607V112.456C381.607 112.776 381.671 113.056 381.799 113.296C381.935 113.536 382.119 113.724 382.351 113.86C382.591 113.996 382.863 114.064 383.167 114.064C383.471 114.064 383.739 113.996 383.971 113.86C384.211 113.724 384.395 113.528 384.523 113.272C384.659 113.016 384.727 112.712 384.727 112.36V108.532H385.855V115H384.763V113.74L384.943 113.848C384.791 114.256 384.531 114.576 384.163 114.808C383.803 115.032 383.387 115.144 382.915 115.144ZM390.344 115.144C389.712 115.144 389.148 114.996 388.652 114.7C388.164 114.404 387.78 114 387.5 113.488C387.22 112.976 387.08 112.4 387.08 111.76C387.08 111.112 387.22 110.536 387.5 110.032C387.78 109.528 388.164 109.128 388.652 108.832C389.148 108.536 389.712 108.388 390.344 108.388C390.768 108.388 391.164 108.464 391.532 108.616C391.9 108.768 392.224 108.972 392.504 109.228C392.784 109.484 392.988 109.784 393.116 110.128L392.12 110.608C391.968 110.272 391.736 110 391.424 109.792C391.112 109.576 390.752 109.468 390.344 109.468C389.952 109.468 389.596 109.568 389.276 109.768C388.964 109.968 388.716 110.24 388.532 110.584C388.348 110.928 388.256 111.324 388.256 111.772C388.256 112.204 388.348 112.596 388.532 112.948C388.716 113.292 388.964 113.564 389.276 113.764C389.596 113.964 389.952 114.064 390.344 114.064C390.752 114.064 391.112 113.96 391.424 113.752C391.736 113.536 391.968 113.252 392.12 112.9L393.116 113.404C392.988 113.74 392.784 114.04 392.504 114.304C392.224 114.56 391.9 114.764 391.532 114.916C391.164 115.068 390.768 115.144 390.344 115.144ZM396.962 115.072C396.33 115.072 395.842 114.892 395.498 114.532C395.162 114.172 394.994 113.664 394.994 113.008V109.6H393.818V108.532H394.058C394.346 108.532 394.574 108.444 394.742 108.268C394.91 108.092 394.994 107.86 394.994 107.572V107.044H396.11V108.532H397.562V109.6H396.11V112.972C396.11 113.188 396.142 113.376 396.206 113.536C396.278 113.696 396.394 113.824 396.554 113.92C396.714 114.008 396.926 114.052 397.19 114.052C397.246 114.052 397.314 114.048 397.394 114.04C397.482 114.032 397.562 114.024 397.634 114.016V115C397.53 115.024 397.414 115.04 397.286 115.048C397.158 115.064 397.05 115.072 396.962 115.072Z" fill="#A886FF"/>
</g>
</g>
<defs>
<filter id="filter0_d_102_3770" x="75" y="59" width="348" height="81" filterUnits="userSpaceOnUse" color-interpolation-filters="sRGB">
<feFlood flood-opacity="0" result="BackgroundImageFix"/>
<feColorMatrix in="SourceAlpha" type="matrix" values="0 0 0 0 0 0 0 0 0 0 0 0 0 0 0 0 0 0 127 0" result="hardAlpha"/>
<feMorphology radius="4" operator="dilate" in="SourceAlpha" result="effect1_dropShadow_102_3770"/>
<feOffset dx="1" dy="1"/>
<feGaussianBlur stdDeviation="1.5"/>
<feComposite in2="hardAlpha" operator="out"/>
<feColorMatrix type="matrix" values="0 0 0 0 0.866667 0 0 0 0 0.831373 0 0 0 0 1 0 0 0 0.8 0"/>
<feBlend mode="normal" in2="BackgroundImageFix" result="effect1_dropShadow_102_3770"/>
<feBlend mode="normal" in="SourceGraphic" in2="effect1_dropShadow_102_3770" result="shape"/>
</filter>
<filter id="filter1_d_102_3770" x="90" y="75.5" width="48" height="48" filterUnits="userSpaceOnUse" color-interpolation-filters="sRGB">
<feFlood flood-opacity="0" result="BackgroundImageFix"/>
<feColorMatrix in="SourceAlpha" type="matrix" values="0 0 0 0 0 0 0 0 0 0 0 0 0 0 0 0 0 0 127 0" result="hardAlpha"/>
<feMorphology radius="4" operator="dilate" in="SourceAlpha" result="effect1_dropShadow_102_3770"/>
<feOffset dx="1" dy="1"/>
<feGaussianBlur stdDeviation="2"/>
<feComposite in2="hardAlpha" operator="out"/>
<feColorMatrix type="matrix" values="0 0 0 0 0.658824 0 0 0 0 0.52549 0 0 0 0 1 0 0 0 0.3 0"/>
<feBlend mode="normal" in2="BackgroundImageFix" result="effect1_dropShadow_102_3770"/>
<feBlend mode="normal" in="SourceGraphic" in2="effect1_dropShadow_102_3770" result="shape"/>
</filter>
<radialGradient id="paint0_radial_102_3770" cx="0" cy="0" r="1" gradientUnits="userSpaceOnUse" gradientTransform="translate(248.5 70) scale(289 81.5919)">
<stop stop-color="#E7E7E7"/>
<stop offset="1" stop-color="#818181" stop-opacity="0.3"/>
</radialGradient>
<linearGradient id="paint1_linear_102_3770" x1="2.54192" y1="-2" x2="2.54192" y2="62" gradientUnits="userSpaceOnUse">
<stop stop-color="#F6F6F6"/>
<stop offset="1" stop-color="#DDD4FF"/>
</linearGradient>
<linearGradient id="paint2_linear_102_3770" x1="-88" y1="20" x2="24" y2="20" gradientUnits="userSpaceOnUse">
<stop stop-color="#F6F6F6"/>
<stop offset="1" stop-color="#DDD4FF"/>
</linearGradient>
<linearGradient id="paint3_linear_102_3770" x1="-88" y1="40" x2="91" y2="40" gradientUnits="userSpaceOnUse">
<stop stop-color="#F6F6F6"/>
<stop offset="1" stop-color="#DDD4FF"/>
</linearGradient>
<linearGradient id="paint4_linear_102_3770" x1="269.542" y1="-2" x2="269.542" y2="62" gradientUnits="userSpaceOnUse">
<stop stop-color="#F6F6F6"/>
<stop offset="1" stop-color="#DDD4FF"/>
</linearGradient>
<linearGradient id="paint5_linear_102_3770" x1="139" y1="30" x2="171" y2="30" gradientUnits="userSpaceOnUse">
<stop stop-color="#F6F6F6"/>
<stop offset="1" stop-color="#DDD4FF"/>
</linearGradient>
<linearGradient id="paint6_linear_102_3770" x1="179" y1="20" x2="291" y2="20" gradientUnits="userSpaceOnUse">
<stop stop-color="#F6F6F6"/>
<stop offset="1" stop-color="#DDD4FF"/>
</linearGradient>
<linearGradient id="paint7_linear_102_3770" x1="179" y1="40" x2="358" y2="40" gradientUnits="userSpaceOnUse">
<stop stop-color="#F6F6F6"/>
<stop offset="1" stop-color="#DDD4FF"/>
</linearGradient>
<linearGradient id="paint8_linear_102_3770" x1="536.542" y1="-2" x2="536.542" y2="62" gradientUnits="userSpaceOnUse">
<stop stop-color="#F6F6F6"/>
<stop offset="1" stop-color="#DDD4FF"/>
</linearGradient>
<linearGradient id="paint9_linear_102_3770" x1="406" y1="30" x2="438" y2="30" gradientUnits="userSpaceOnUse">
<stop stop-color="#F6F6F6"/>
<stop offset="1" stop-color="#DDD4FF"/>
</linearGradient>
<linearGradient id="paint10_linear_102_3770" x1="446" y1="20" x2="558" y2="20" gradientUnits="userSpaceOnUse">
<stop stop-color="#F6F6F6"/>
<stop offset="1" stop-color="#DDD4FF"/>
</linearGradient>
<linearGradient id="paint11_linear_102_3770" x1="446" y1="40" x2="625" y2="40" gradientUnits="userSpaceOnUse">
<stop stop-color="#F6F6F6"/>
<stop offset="1" stop-color="#DDD4FF"/>
</linearGradient>
<linearGradient id="paint12_linear_102_3770" x1="2.54192" y1="78" x2="2.54192" y2="142" gradientUnits="userSpaceOnUse">
<stop stop-color="#F6F6F6"/>
<stop offset="1" stop-color="#DDD4FF"/>
</linearGradient>
<linearGradient id="paint13_linear_102_3770" x1="-88" y1="100" x2="24" y2="100" gradientUnits="userSpaceOnUse">
<stop stop-color="#F6F6F6"/>
<stop offset="1" stop-color="#DDD4FF"/>
</linearGradient>
<linearGradient id="paint14_linear_102_3770" x1="-88" y1="120" x2="91" y2="120" gradientUnits="userSpaceOnUse">
<stop stop-color="#F6F6F6"/>
<stop offset="1" stop-color="#DDD4FF"/>
</linearGradient>
<linearGradient id="paint15_linear_102_3770" x1="269.542" y1="78" x2="269.542" y2="142" gradientUnits="userSpaceOnUse">
<stop stop-color="#F6F6F6"/>
<stop offset="1" stop-color="#DDD4FF"/>
</linearGradient>
<linearGradient id="paint16_linear_102_3770" x1="139" y1="110" x2="171" y2="110" gradientUnits="userSpaceOnUse">
<stop stop-color="#F6F6F6"/>
<stop offset="1" stop-color="#DDD4FF"/>
</linearGradient>
<linearGradient id="paint17_linear_102_3770" x1="179" y1="100" x2="291" y2="100" gradientUnits="userSpaceOnUse">
<stop stop-color="#F6F6F6"/>
<stop offset="1" stop-color="#DDD4FF"/>
</linearGradient>
<linearGradient id="paint18_linear_102_3770" x1="179" y1="120" x2="358" y2="120" gradientUnits="userSpaceOnUse">
<stop stop-color="#F6F6F6"/>
<stop offset="1" stop-color="#DDD4FF"/>
</linearGradient>
<linearGradient id="paint19_linear_102_3770" x1="536.542" y1="78" x2="536.542" y2="142" gradientUnits="userSpaceOnUse">
<stop stop-color="#F6F6F6"/>
<stop offset="1" stop-color="#DDD4FF"/>
</linearGradient>
<linearGradient id="paint20_linear_102_3770" x1="406" y1="110" x2="438" y2="110" gradientUnits="userSpaceOnUse">
<stop stop-color="#F6F6F6"/>
<stop offset="1" stop-color="#DDD4FF"/>
</linearGradient>
<linearGradient id="paint21_linear_102_3770" x1="446" y1="100" x2="558" y2="100" gradientUnits="userSpaceOnUse">
<stop stop-color="#F6F6F6"/>
<stop offset="1" stop-color="#DDD4FF"/>
</linearGradient>
<linearGradient id="paint22_linear_102_3770" x1="446" y1="120" x2="625" y2="120" gradientUnits="userSpaceOnUse">
<stop stop-color="#F6F6F6"/>
<stop offset="1" stop-color="#DDD4FF"/>
</linearGradient>
<linearGradient id="paint23_linear_102_3770" x1="2.54192" y1="158" x2="2.54192" y2="222" gradientUnits="userSpaceOnUse">
<stop stop-color="#F6F6F6"/>
<stop offset="1" stop-color="#DDD4FF"/>
</linearGradient>
<linearGradient id="paint24_linear_102_3770" x1="-88" y1="180" x2="24" y2="180" gradientUnits="userSpaceOnUse">
<stop stop-color="#F6F6F6"/>
<stop offset="1" stop-color="#DDD4FF"/>
</linearGradient>
<linearGradient id="paint25_linear_102_3770" x1="269.542" y1="158" x2="269.542" y2="222" gradientUnits="userSpaceOnUse">
<stop stop-color="#F6F6F6"/>
<stop offset="1" stop-color="#DDD4FF"/>
</linearGradient>
<linearGradient id="paint26_linear_102_3770" x1="139" y1="190" x2="171" y2="190" gradientUnits="userSpaceOnUse">
<stop stop-color="#F6F6F6"/>
<stop offset="1" stop-color="#DDD4FF"/>
</linearGradient>
<linearGradient id="paint27_linear_102_3770" x1="179" y1="180" x2="291" y2="180" gradientUnits="userSpaceOnUse">
<stop stop-color="#F6F6F6"/>
<stop offset="1" stop-color="#DDD4FF"/>
</linearGradient>
<linearGradient id="paint28_linear_102_3770" x1="536.542" y1="158" x2="536.542" y2="222" gradientUnits="userSpaceOnUse">
<stop stop-color="#F6F6F6"/>
<stop offset="1" stop-color="#DDD4FF"/>
</linearGradient>
<linearGradient id="paint29_linear_102_3770" x1="406" y1="190" x2="438" y2="190" gradientUnits="userSpaceOnUse">
<stop stop-color="#F6F6F6"/>
<stop offset="1" stop-color="#DDD4FF"/>
</linearGradient>
<linearGradient id="paint30_linear_102_3770" x1="446" y1="180" x2="558" y2="180" gradientUnits="userSpaceOnUse">
<stop stop-color="#F6F6F6"/>
<stop offset="1" stop-color="#DDD4FF"/>
</linearGradient>
<clipPath id="clip0_102_3770">
<rect width="496" height="198" fill="white"/>
</clipPath>
</defs>
</svg>
