<svg width="320" height="182" viewBox="0 0 320 182" fill="none" xmlns="http://www.w3.org/2000/svg">
<g clip-path="url(#clip0_40_310)">
<mask id="mask0_40_310" style="mask-type:alpha" maskUnits="userSpaceOnUse" x="-43" y="-51" width="406" height="239">
<rect x="-43" y="-51" width="406" height="239" fill="url(#paint0_radial_40_310)"/>
</mask>
<g mask="url(#mask0_40_310)">
<rect x="-15.5" y="12.5" width="39" height="39" rx="3.5" stroke="#C4EEDA"/>
<rect x="23.5" y="12.5" width="39" height="39" rx="3.5" stroke="#C4EEDA"/>
<rect x="62.5" y="12.5" width="39" height="39" rx="3.5" stroke="#C4EEDA"/>
<rect x="101.5" y="12.5" width="39" height="39" rx="3.5" fill="#C4EEDA"/>
<rect x="101.5" y="12.5" width="39" height="39" rx="3.5" stroke="#C4EEDA"/>
<rect x="140.5" y="12.5" width="39" height="39" rx="3.5" stroke="#C4EEDA"/>
<rect x="179.5" y="12.5" width="39" height="39" rx="3.5" stroke="#C4EEDA"/>
<rect x="218.5" y="12.5" width="39" height="39" rx="3.5" stroke="#C4EEDA"/>
<rect x="257.5" y="12.5" width="39" height="39" rx="3.5" stroke="#C4EEDA"/>
<rect x="296.5" y="12.5" width="39" height="39" rx="3.5" stroke="#C4EEDA"/>
<rect x="-15.5" y="51.5" width="39" height="39" rx="3.5" stroke="#C4EEDA"/>
<rect x="23.5" y="51.5" width="39" height="39" rx="3.5" stroke="#C4EEDA"/>
<rect x="62.5" y="51.5" width="39" height="39" rx="3.5" stroke="#C4EEDA"/>
<rect x="101.5" y="51.5" width="39" height="39" rx="3.5" stroke="#C4EEDA"/>
<rect x="140.5" y="51.5" width="39" height="39" rx="3.5" stroke="#C4EEDA"/>
<rect x="179.5" y="51.5" width="39" height="39" rx="3.5" stroke="#C4EEDA"/>
<rect x="218.5" y="51.5" width="39" height="39" rx="3.5" fill="#C4EEDA"/>
<rect x="218.5" y="51.5" width="39" height="39" rx="3.5" stroke="#C4EEDA"/>
<rect x="257.5" y="51.5" width="39" height="39" rx="3.5" stroke="#C4EEDA"/>
<rect x="296.5" y="51.5" width="39" height="39" rx="3.5" stroke="#C4EEDA"/>
<rect x="-15.5" y="90.5" width="39" height="39" rx="3.5" stroke="#C4EEDA"/>
<rect x="23.5" y="90.5" width="39" height="39" rx="3.5" fill="#C4EEDA"/>
<rect x="23.5" y="90.5" width="39" height="39" rx="3.5" stroke="#C4EEDA"/>
<rect x="62.5" y="90.5" width="39" height="39" rx="3.5" stroke="#C4EEDA"/>
<rect x="101.5" y="90.5" width="39" height="39" rx="3.5" stroke="#C4EEDA"/>
<rect x="140.5" y="90.5" width="39" height="39" rx="3.5" stroke="#C4EEDA"/>
<rect x="179.5" y="90.5" width="39" height="39" rx="3.5" stroke="#C4EEDA"/>
<rect x="218.5" y="90.5" width="39" height="39" rx="3.5" stroke="#C4EEDA"/>
<rect x="257.5" y="90.5" width="39" height="39" rx="3.5" stroke="#C4EEDA"/>
<rect x="296.5" y="90.5" width="39" height="39" rx="3.5" stroke="#C4EEDA"/>
<rect x="-15.5" y="129.5" width="39" height="39" rx="3.5" stroke="#C4EEDA"/>
<rect x="23.5" y="129.5" width="39" height="39" rx="3.5" stroke="#C4EEDA"/>
<rect x="62.5" y="129.5" width="39" height="39" rx="3.5" stroke="#C4EEDA"/>
<rect x="101.5" y="129.5" width="39" height="39" rx="3.5" stroke="#C4EEDA"/>
<rect x="140.5" y="129.5" width="39" height="39" rx="3.5" fill="#C4EEDA"/>
<rect x="140.5" y="129.5" width="39" height="39" rx="3.5" stroke="#C4EEDA"/>
<rect x="179.5" y="129.5" width="39" height="39" rx="3.5" stroke="#C4EEDA"/>
<rect x="218.5" y="129.5" width="39" height="39" rx="3.5" stroke="#C4EEDA"/>
<rect x="257.5" y="129.5" width="39" height="39" rx="3.5" stroke="#C4EEDA"/>
<rect x="296.5" y="129.5" width="39" height="39" rx="3.5" stroke="#C4EEDA"/>
<rect x="-59.5" y="65.5" width="135" height="50" rx="7.5" fill="#D8F5E7"/>
<rect x="-59.5" y="65.5" width="135" height="50" rx="7.5" stroke="#96DFBD"/>
<path d="M-37.388 85.144C-37.972 85.144 -38.492 85.016 -38.948 84.76C-39.404 84.504 -39.764 84.152 -40.028 83.704C-40.284 83.256 -40.412 82.748 -40.412 82.18C-40.412 81.884 -40.38 81.588 -40.316 81.292C-40.252 80.996 -40.14 80.688 -39.98 80.368C-39.812 80.048 -39.588 79.704 -39.308 79.336L-36.812 76.06H-35.12L-38.18 80.02L-38.42 79.864C-38.308 79.736 -38.188 79.636 -38.06 79.564C-37.924 79.492 -37.784 79.44 -37.64 79.408C-37.488 79.376 -37.328 79.36 -37.16 79.36C-36.624 79.36 -36.144 79.484 -35.72 79.732C-35.296 79.98 -34.964 80.316 -34.724 80.74C-34.476 81.164 -34.352 81.652 -34.352 82.204C-34.352 82.764 -34.484 83.268 -34.748 83.716C-35.012 84.156 -35.372 84.504 -35.828 84.76C-36.276 85.016 -36.796 85.144 -37.388 85.144ZM-37.388 83.884C-37.076 83.884 -36.8 83.812 -36.56 83.668C-36.32 83.524 -36.128 83.328 -35.984 83.08C-35.84 82.824 -35.768 82.536 -35.768 82.216C-35.768 81.888 -35.84 81.6 -35.984 81.352C-36.12 81.104 -36.312 80.912 -36.56 80.776C-36.8 80.632 -37.076 80.56 -37.388 80.56C-37.692 80.56 -37.968 80.632 -38.216 80.776C-38.456 80.912 -38.648 81.104 -38.792 81.352C-38.936 81.6 -39.008 81.888 -39.008 82.216C-39.008 82.536 -38.936 82.824 -38.792 83.08C-38.648 83.328 -38.456 83.524 -38.216 83.668C-37.968 83.812 -37.692 83.884 -37.388 83.884ZM-31.2513 85V76.06H-29.9313L-26.5713 80.716H-27.2313L-23.9313 76.06H-22.6113V85H-24.0153V77.728L-23.4873 77.872L-26.8593 82.48H-27.0033L-30.3033 77.872L-29.8353 77.728V85H-31.2513ZM-18.003 85.144C-18.627 85.144 -19.199 84.996 -19.719 84.7C-20.231 84.404 -20.639 84 -20.943 83.488C-21.247 82.976 -21.399 82.396 -21.399 81.748C-21.399 81.092 -21.247 80.512 -20.943 80.008C-20.639 79.496 -20.231 79.096 -19.719 78.808C-19.207 78.512 -18.635 78.364 -18.003 78.364C-17.363 78.364 -16.791 78.512 -16.287 78.808C-15.775 79.096 -15.371 79.496 -15.075 80.008C-14.771 80.512 -14.619 81.092 -14.619 81.748C-14.619 82.404 -14.771 82.988 -15.075 83.5C-15.379 84.012 -15.787 84.416 -16.299 84.712C-16.811 85 -17.379 85.144 -18.003 85.144ZM-18.003 83.884C-17.619 83.884 -17.279 83.792 -16.983 83.608C-16.687 83.424 -16.455 83.172 -16.287 82.852C-16.111 82.524 -16.023 82.156 -16.023 81.748C-16.023 81.34 -16.111 80.976 -16.287 80.656C-16.455 80.336 -16.687 80.084 -16.983 79.9C-17.279 79.716 -17.619 79.624 -18.003 79.624C-18.379 79.624 -18.719 79.716 -19.023 79.9C-19.319 80.084 -19.555 80.336 -19.731 80.656C-19.899 80.976 -19.983 81.34 -19.983 81.748C-19.983 82.156 -19.899 82.524 -19.731 82.852C-19.555 83.172 -19.319 83.424 -19.023 83.608C-18.719 83.792 -18.379 83.884 -18.003 83.884ZM-13.5352 85V78.508H-12.2392V79.78L-12.3952 79.612C-12.2352 79.204 -11.9792 78.896 -11.6272 78.688C-11.2752 78.472 -10.8672 78.364 -10.4032 78.364C-9.92319 78.364 -9.49919 78.468 -9.13119 78.676C-8.76319 78.884 -8.47519 79.172 -8.26719 79.54C-8.05919 79.908 -7.95519 80.332 -7.95519 80.812V85H-9.29919V81.172C-9.29919 80.844 -9.35919 80.568 -9.47919 80.344C-9.59919 80.112 -9.77119 79.936 -9.99519 79.816C-10.2112 79.688 -10.4592 79.624 -10.7392 79.624C-11.0192 79.624 -11.2712 79.688 -11.4952 79.816C-11.7112 79.936 -11.8792 80.112 -11.9992 80.344C-12.1192 80.576 -12.1792 80.852 -12.1792 81.172V85H-13.5352ZM-3.93594 85.072C-4.61594 85.072 -5.14394 84.88 -5.51994 84.496C-5.89594 84.112 -6.08394 83.572 -6.08394 82.876V79.732H-7.22394V78.508H-7.04394C-6.73994 78.508 -6.50394 78.42 -6.33594 78.244C-6.16794 78.068 -6.08394 77.828 -6.08394 77.524V77.02H-4.72794V78.508H-3.25194V79.732H-4.72794V82.816C-4.72794 83.04 -4.69194 83.232 -4.61994 83.392C-4.54794 83.544 -4.43194 83.664 -4.27194 83.752C-4.11194 83.832 -3.90394 83.872 -3.64794 83.872C-3.58394 83.872 -3.51194 83.868 -3.43194 83.86C-3.35194 83.852 -3.27594 83.844 -3.20394 83.836V85C-3.31594 85.016 -3.43994 85.032 -3.57594 85.048C-3.71194 85.064 -3.83194 85.072 -3.93594 85.072ZM-2.12065 85V75.916H-0.764655V79.78L-0.980655 79.612C-0.820655 79.204 -0.564655 78.896 -0.212655 78.688C0.139345 78.472 0.547345 78.364 1.01135 78.364C1.49135 78.364 1.91535 78.468 2.28335 78.676C2.65135 78.884 2.93935 79.172 3.14735 79.54C3.35535 79.908 3.45935 80.328 3.45935 80.8V85H2.11535V81.172C2.11535 80.844 2.05135 80.568 1.92335 80.344C1.80335 80.112 1.63535 79.936 1.41935 79.816C1.20335 79.688 0.955345 79.624 0.675345 79.624C0.403345 79.624 0.155345 79.688 -0.0686547 79.816C-0.284655 79.936 -0.456655 80.112 -0.584655 80.344C-0.704655 80.576 -0.764655 80.852 -0.764655 81.172V85H-2.12065ZM7.07059 85.144C6.40659 85.144 5.82259 84.98 5.31859 84.652C4.82259 84.324 4.47459 83.884 4.27459 83.332L5.31859 82.84C5.49459 83.208 5.73459 83.5 6.03859 83.716C6.35059 83.932 6.69459 84.04 7.07059 84.04C7.39059 84.04 7.65059 83.968 7.85059 83.824C8.05059 83.68 8.15059 83.484 8.15059 83.236C8.15059 83.076 8.10659 82.948 8.01859 82.852C7.93059 82.748 7.81859 82.664 7.68259 82.6C7.55459 82.536 7.42259 82.488 7.28659 82.456L6.26659 82.168C5.70659 82.008 5.28659 81.768 5.00659 81.448C4.73459 81.12 4.59859 80.74 4.59859 80.308C4.59859 79.916 4.69859 79.576 4.89859 79.288C5.09859 78.992 5.37459 78.764 5.72659 78.604C6.07859 78.444 6.47459 78.364 6.91459 78.364C7.50659 78.364 8.03459 78.512 8.49859 78.808C8.96259 79.096 9.29059 79.5 9.48259 80.02L8.43859 80.512C8.31059 80.2 8.10659 79.952 7.82659 79.768C7.55459 79.584 7.24659 79.492 6.90259 79.492C6.60659 79.492 6.37059 79.564 6.19459 79.708C6.01859 79.844 5.93059 80.024 5.93059 80.248C5.93059 80.4 5.97059 80.528 6.05059 80.632C6.13059 80.728 6.23459 80.808 6.36259 80.872C6.49059 80.928 6.62259 80.976 6.75859 81.016L7.81459 81.328C8.35059 81.48 8.76259 81.72 9.05059 82.048C9.33859 82.368 9.48259 82.752 9.48259 83.2C9.48259 83.584 9.37859 83.924 9.17059 84.22C8.97059 84.508 8.69059 84.736 8.33059 84.904C7.97059 85.064 7.55059 85.144 7.07059 85.144Z" fill="#C4EEDA"/>
<path d="M-36.268 108.168C-36.9307 108.168 -37.5467 108.047 -38.116 107.804C-38.676 107.561 -39.1613 107.225 -39.572 106.796C-39.9733 106.357 -40.2673 105.849 -40.454 105.27L-38.872 104.584C-38.62 105.181 -38.256 105.653 -37.78 105.998C-37.304 106.334 -36.7673 106.502 -36.17 106.502C-35.834 106.502 -35.5447 106.451 -35.302 106.348C-35.05 106.236 -34.8587 106.087 -34.728 105.9C-34.588 105.713 -34.518 105.489 -34.518 105.228C-34.518 104.92 -34.6113 104.668 -34.798 104.472C-34.9753 104.267 -35.246 104.108 -35.61 103.996L-37.612 103.352C-38.424 103.1 -39.0353 102.722 -39.446 102.218C-39.8567 101.714 -40.062 101.121 -40.062 100.44C-40.062 99.8427 -39.9173 99.3153 -39.628 98.858C-39.3293 98.4007 -38.9187 98.046 -38.396 97.794C-37.864 97.5327 -37.2573 97.402 -36.576 97.402C-35.9507 97.402 -35.3767 97.514 -34.854 97.738C-34.3313 97.9527 -33.8833 98.256 -33.51 98.648C-33.1273 99.0307 -32.8427 99.4833 -32.656 100.006L-34.224 100.706C-34.4293 100.183 -34.7373 99.782 -35.148 99.502C-35.5587 99.2127 -36.0347 99.068 -36.576 99.068C-36.8933 99.068 -37.1733 99.124 -37.416 99.236C-37.6587 99.3387 -37.85 99.488 -37.99 99.684C-38.1207 99.8707 -38.186 100.095 -38.186 100.356C-38.186 100.645 -38.0927 100.902 -37.906 101.126C-37.7193 101.341 -37.4347 101.509 -37.052 101.63L-35.134 102.232C-34.3033 102.503 -33.6827 102.876 -33.272 103.352C-32.852 103.828 -32.642 104.416 -32.642 105.116C-32.642 105.713 -32.796 106.241 -33.104 106.698C-33.412 107.155 -33.8367 107.515 -34.378 107.776C-34.9193 108.037 -35.5493 108.168 -36.268 108.168ZM-36.94 109.4V96.17H-35.75V109.4H-36.94ZM-30.8995 108L-27.3575 103.436L-27.0355 103.772C-27.1755 103.875 -27.3109 103.959 -27.4415 104.024C-27.5722 104.089 -27.7122 104.136 -27.8615 104.164C-28.0109 104.192 -28.1695 104.206 -28.3375 104.206C-28.9722 104.206 -29.5369 104.061 -30.0315 103.772C-30.5262 103.483 -30.9182 103.091 -31.2075 102.596C-31.4875 102.092 -31.6275 101.523 -31.6275 100.888C-31.6275 100.216 -31.4735 99.6187 -31.1655 99.096C-30.8482 98.5733 -30.4189 98.1627 -29.8775 97.864C-29.3269 97.556 -28.7015 97.402 -28.0015 97.402C-27.2922 97.402 -26.6669 97.5513 -26.1255 97.85C-25.5842 98.1487 -25.1595 98.5593 -24.8515 99.082C-24.5342 99.5953 -24.3755 100.188 -24.3755 100.86C-24.3755 101.196 -24.4129 101.532 -24.4875 101.868C-24.5622 102.204 -24.6975 102.563 -24.8935 102.946C-25.0802 103.319 -25.3509 103.744 -25.7055 104.22L-28.6175 108H-30.8995ZM-28.0015 102.61C-27.6749 102.61 -27.3855 102.54 -27.1335 102.4C-26.8722 102.251 -26.6669 102.045 -26.5175 101.784C-26.3682 101.513 -26.2935 101.21 -26.2935 100.874C-26.2935 100.519 -26.3729 100.211 -26.5315 99.95C-26.6809 99.6887 -26.8815 99.4833 -27.1335 99.334C-27.3855 99.1847 -27.6749 99.11 -28.0015 99.11C-28.3189 99.11 -28.6082 99.1847 -28.8695 99.334C-29.1309 99.4833 -29.3409 99.6887 -29.4995 99.95C-29.6489 100.211 -29.7235 100.519 -29.7235 100.874C-29.7235 101.21 -29.6489 101.513 -29.4995 101.784C-29.3409 102.045 -29.1309 102.251 -28.8695 102.4C-28.6082 102.54 -28.3189 102.61 -28.0015 102.61ZM-19.1177 108.168C-19.9483 108.168 -20.6763 107.944 -21.3017 107.496C-21.927 107.048 -22.417 106.418 -22.7717 105.606C-23.117 104.794 -23.2897 103.851 -23.2897 102.778C-23.2897 101.695 -23.117 100.753 -22.7717 99.95C-22.4263 99.1473 -21.941 98.522 -21.3157 98.074C-20.6903 97.626 -19.9623 97.402 -19.1317 97.402C-18.2823 97.402 -17.5497 97.626 -16.9337 98.074C-16.3083 98.522 -15.8183 99.152 -15.4637 99.964C-15.109 100.767 -14.9317 101.705 -14.9317 102.778C-14.9317 103.851 -15.109 104.794 -15.4637 105.606C-15.809 106.409 -16.2943 107.039 -16.9197 107.496C-17.545 107.944 -18.2777 108.168 -19.1177 108.168ZM-19.1037 106.432C-18.6277 106.432 -18.2217 106.287 -17.8857 105.998C-17.5497 105.699 -17.293 105.279 -17.1157 104.738C-16.929 104.187 -16.8357 103.534 -16.8357 102.778C-16.8357 102.022 -16.929 101.373 -17.1157 100.832C-17.293 100.281 -17.5543 99.8613 -17.8997 99.572C-18.2357 99.2827 -18.6463 99.138 -19.1317 99.138C-19.5983 99.138 -19.9997 99.2827 -20.3357 99.572C-20.6717 99.8613 -20.933 100.281 -21.1197 100.832C-21.297 101.373 -21.3857 102.022 -21.3857 102.778C-21.3857 103.525 -21.297 104.173 -21.1197 104.724C-20.933 105.265 -20.6717 105.685 -20.3357 105.984C-19.9903 106.283 -19.5797 106.432 -19.1037 106.432ZM-9.48556 108.168C-10.3162 108.168 -11.0442 107.944 -11.6696 107.496C-12.2949 107.048 -12.7849 106.418 -13.1396 105.606C-13.4849 104.794 -13.6576 103.851 -13.6576 102.778C-13.6576 101.695 -13.4849 100.753 -13.1396 99.95C-12.7942 99.1473 -12.3089 98.522 -11.6836 98.074C-11.0582 97.626 -10.3302 97.402 -9.49956 97.402C-8.65023 97.402 -7.91756 97.626 -7.30156 98.074C-6.67623 98.522 -6.18623 99.152 -5.83156 99.964C-5.4769 100.767 -5.29956 101.705 -5.29956 102.778C-5.29956 103.851 -5.4769 104.794 -5.83156 105.606C-6.1769 106.409 -6.66223 107.039 -7.28756 107.496C-7.9129 107.944 -8.64556 108.168 -9.48556 108.168ZM-9.47156 106.432C-8.99556 106.432 -8.58956 106.287 -8.25356 105.998C-7.91756 105.699 -7.6609 105.279 -7.48356 104.738C-7.2969 104.187 -7.20356 103.534 -7.20356 102.778C-7.20356 102.022 -7.2969 101.373 -7.48356 100.832C-7.6609 100.281 -7.92223 99.8613 -8.26756 99.572C-8.60356 99.2827 -9.01423 99.138 -9.49956 99.138C-9.96623 99.138 -10.3676 99.2827 -10.7036 99.572C-11.0396 99.8613 -11.3009 100.281 -11.4876 100.832C-11.6649 101.373 -11.7536 102.022 -11.7536 102.778C-11.7536 103.525 -11.6649 104.173 -11.4876 104.724C-11.3009 105.265 -11.0396 105.685 -10.7036 105.984C-10.3582 106.283 -9.94756 106.432 -9.47156 106.432ZM-3.08745 108V106.04H-1.23945V108H-3.08745ZM5.15756 108.168C4.32689 108.168 3.59889 107.944 2.97356 107.496C2.34823 107.048 1.85823 106.418 1.50356 105.606C1.15823 104.794 0.985561 103.851 0.985561 102.778C0.985561 101.695 1.15823 100.753 1.50356 99.95C1.84889 99.1473 2.33423 98.522 2.95956 98.074C3.58489 97.626 4.31289 97.402 5.14356 97.402C5.99289 97.402 6.72556 97.626 7.34156 98.074C7.96689 98.522 8.45689 99.152 8.81156 99.964C9.16623 100.767 9.34356 101.705 9.34356 102.778C9.34356 103.851 9.16623 104.794 8.81156 105.606C8.46623 106.409 7.98089 107.039 7.35556 107.496C6.73023 107.944 5.99756 108.168 5.15756 108.168ZM5.17156 106.432C5.64756 106.432 6.05356 106.287 6.38956 105.998C6.72556 105.699 6.98223 105.279 7.15956 104.738C7.34623 104.187 7.43956 103.534 7.43956 102.778C7.43956 102.022 7.34623 101.373 7.15956 100.832C6.98223 100.281 6.72089 99.8613 6.37556 99.572C6.03956 99.2827 5.62889 99.138 5.14356 99.138C4.67689 99.138 4.27556 99.2827 3.93956 99.572C3.60356 99.8613 3.34223 100.281 3.15556 100.832C2.97823 101.373 2.88956 102.022 2.88956 102.778C2.88956 103.525 2.97823 104.173 3.15556 104.724C3.34223 105.265 3.60356 105.685 3.93956 105.984C4.28489 106.283 4.69556 106.432 5.17156 106.432ZM14.7897 108.168C13.959 108.168 13.231 107.944 12.6057 107.496C11.9803 107.048 11.4903 106.418 11.1357 105.606C10.7903 104.794 10.6177 103.851 10.6177 102.778C10.6177 101.695 10.7903 100.753 11.1357 99.95C11.481 99.1473 11.9663 98.522 12.5917 98.074C13.217 97.626 13.945 97.402 14.7757 97.402C15.625 97.402 16.3577 97.626 16.9737 98.074C17.599 98.522 18.089 99.152 18.4437 99.964C18.7983 100.767 18.9757 101.705 18.9757 102.778C18.9757 103.851 18.7983 104.794 18.4437 105.606C18.0983 106.409 17.613 107.039 16.9877 107.496C16.3623 107.944 15.6297 108.168 14.7897 108.168ZM14.8037 106.432C15.2797 106.432 15.6857 106.287 16.0217 105.998C16.3577 105.699 16.6143 105.279 16.7917 104.738C16.9783 104.187 17.0717 103.534 17.0717 102.778C17.0717 102.022 16.9783 101.373 16.7917 100.832C16.6143 100.281 16.353 99.8613 16.0077 99.572C15.6717 99.2827 15.261 99.138 14.7757 99.138C14.309 99.138 13.9077 99.2827 13.5717 99.572C13.2357 99.8613 12.9743 100.281 12.7877 100.832C12.6103 101.373 12.5217 102.022 12.5217 102.778C12.5217 103.525 12.6103 104.173 12.7877 104.724C12.9743 105.265 13.2357 105.685 13.5717 105.984C13.917 106.283 14.3277 106.432 14.8037 106.432Z" fill="#96DFBD"/>
<path d="M28.224 109.68L32.872 98.13H34.874L30.226 109.68H28.224ZM35.656 108V100.384H37.378V102.148L37.182 101.854C37.322 101.303 37.602 100.893 38.022 100.622C38.442 100.351 38.9367 100.216 39.506 100.216C40.1314 100.216 40.682 100.379 41.158 100.706C41.634 101.033 41.942 101.462 42.082 101.994L41.564 102.036C41.7974 101.429 42.1474 100.977 42.614 100.678C43.0807 100.37 43.6174 100.216 44.224 100.216C44.7654 100.216 45.246 100.337 45.666 100.58C46.0954 100.823 46.4314 101.163 46.674 101.602C46.9167 102.031 47.038 102.531 47.038 103.1V108H45.204V103.534C45.204 103.198 45.1434 102.909 45.022 102.666C44.9007 102.423 44.7327 102.237 44.518 102.106C44.3034 101.966 44.042 101.896 43.734 101.896C43.4447 101.896 43.188 101.966 42.964 102.106C42.74 102.237 42.5674 102.423 42.446 102.666C42.3247 102.909 42.264 103.198 42.264 103.534V108H40.43V103.534C40.43 103.198 40.3694 102.909 40.248 102.666C40.1267 102.423 39.954 102.237 39.73 102.106C39.5154 101.966 39.2587 101.896 38.96 101.896C38.6707 101.896 38.414 101.966 38.19 102.106C37.966 102.237 37.7934 102.423 37.672 102.666C37.5507 102.909 37.49 103.198 37.49 103.534V108H35.656ZM52.0336 108.168C51.287 108.168 50.6056 107.995 49.9896 107.65C49.383 107.305 48.8976 106.833 48.5336 106.236C48.179 105.639 48.0016 104.957 48.0016 104.192C48.0016 103.427 48.179 102.745 48.5336 102.148C48.8976 101.551 49.383 101.079 49.9896 100.734C50.5963 100.389 51.2776 100.216 52.0336 100.216C52.7803 100.216 53.457 100.389 54.0636 100.734C54.6703 101.079 55.151 101.551 55.5056 102.148C55.8696 102.736 56.0516 103.417 56.0516 104.192C56.0516 104.957 55.8696 105.639 55.5056 106.236C55.1416 106.833 54.6563 107.305 54.0496 107.65C53.443 107.995 52.771 108.168 52.0336 108.168ZM52.0336 106.488C52.4443 106.488 52.8036 106.39 53.1116 106.194C53.429 105.998 53.6763 105.727 53.8536 105.382C54.0403 105.027 54.1336 104.631 54.1336 104.192C54.1336 103.744 54.0403 103.352 53.8536 103.016C53.6763 102.671 53.429 102.4 53.1116 102.204C52.8036 101.999 52.4443 101.896 52.0336 101.896C51.6136 101.896 51.245 101.999 50.9276 102.204C50.6103 102.4 50.3583 102.671 50.1716 103.016C49.9943 103.352 49.9056 103.744 49.9056 104.192C49.9056 104.631 49.9943 105.027 50.1716 105.382C50.3583 105.727 50.6103 105.998 50.9276 106.194C51.245 106.39 51.6136 106.488 52.0336 106.488Z" fill="#96DFBD"/>
<g filter="url(#filter0_d_40_310)">
<rect x="92" y="65" width="136" height="51" rx="8" fill="#2B8E60"/>
<rect x="92.5" y="65.5" width="135" height="50" rx="7.5" stroke="#1D4A37"/>
<path d="M110.112 85V77.26H108.396V76.06H111.516V85H110.112ZM113.059 85V83.98L115.507 81.364C115.987 80.852 116.363 80.44 116.635 80.128C116.915 79.808 117.115 79.528 117.235 79.288C117.363 79.048 117.427 78.796 117.427 78.532C117.427 78.1 117.295 77.768 117.031 77.536C116.767 77.296 116.427 77.176 116.011 77.176C115.579 77.176 115.207 77.3 114.895 77.548C114.583 77.788 114.367 78.14 114.247 78.604L112.999 78.244C113.095 77.772 113.287 77.364 113.575 77.02C113.863 76.668 114.215 76.396 114.631 76.204C115.055 76.012 115.511 75.916 115.999 75.916C116.567 75.916 117.063 76.024 117.487 76.24C117.911 76.448 118.239 76.74 118.471 77.116C118.711 77.492 118.831 77.928 118.831 78.424C118.831 78.752 118.767 79.072 118.639 79.384C118.519 79.688 118.331 80.012 118.075 80.356C117.819 80.692 117.491 81.072 117.091 81.496L114.931 83.8H118.999V85H113.059ZM122.173 85V76.06H123.493L126.853 80.716H126.193L129.493 76.06H130.813V85H129.409V77.728L129.937 77.872L126.565 82.48H126.421L123.121 77.872L123.589 77.728V85H122.173ZM135.421 85.144C134.797 85.144 134.225 84.996 133.705 84.7C133.193 84.404 132.785 84 132.481 83.488C132.177 82.976 132.025 82.396 132.025 81.748C132.025 81.092 132.177 80.512 132.481 80.008C132.785 79.496 133.193 79.096 133.705 78.808C134.217 78.512 134.789 78.364 135.421 78.364C136.061 78.364 136.633 78.512 137.137 78.808C137.649 79.096 138.053 79.496 138.349 80.008C138.653 80.512 138.805 81.092 138.805 81.748C138.805 82.404 138.653 82.988 138.349 83.5C138.045 84.012 137.637 84.416 137.125 84.712C136.613 85 136.045 85.144 135.421 85.144ZM135.421 83.884C135.805 83.884 136.145 83.792 136.441 83.608C136.737 83.424 136.969 83.172 137.137 82.852C137.313 82.524 137.401 82.156 137.401 81.748C137.401 81.34 137.313 80.976 137.137 80.656C136.969 80.336 136.737 80.084 136.441 79.9C136.145 79.716 135.805 79.624 135.421 79.624C135.045 79.624 134.705 79.716 134.401 79.9C134.105 80.084 133.869 80.336 133.693 80.656C133.525 80.976 133.441 81.34 133.441 81.748C133.441 82.156 133.525 82.524 133.693 82.852C133.869 83.172 134.105 83.424 134.401 83.608C134.705 83.792 135.045 83.884 135.421 83.884ZM139.889 85V78.508H141.185V79.78L141.029 79.612C141.189 79.204 141.445 78.896 141.797 78.688C142.149 78.472 142.557 78.364 143.021 78.364C143.501 78.364 143.925 78.468 144.293 78.676C144.661 78.884 144.949 79.172 145.157 79.54C145.365 79.908 145.469 80.332 145.469 80.812V85H144.125V81.172C144.125 80.844 144.065 80.568 143.945 80.344C143.825 80.112 143.653 79.936 143.429 79.816C143.213 79.688 142.965 79.624 142.685 79.624C142.405 79.624 142.153 79.688 141.929 79.816C141.713 79.936 141.545 80.112 141.425 80.344C141.305 80.576 141.245 80.852 141.245 81.172V85H139.889ZM149.488 85.072C148.808 85.072 148.28 84.88 147.904 84.496C147.528 84.112 147.34 83.572 147.34 82.876V79.732H146.2V78.508H146.38C146.684 78.508 146.92 78.42 147.088 78.244C147.256 78.068 147.34 77.828 147.34 77.524V77.02H148.696V78.508H150.172V79.732H148.696V82.816C148.696 83.04 148.732 83.232 148.804 83.392C148.876 83.544 148.992 83.664 149.152 83.752C149.312 83.832 149.52 83.872 149.776 83.872C149.84 83.872 149.912 83.868 149.992 83.86C150.072 83.852 150.148 83.844 150.22 83.836V85C150.108 85.016 149.984 85.032 149.848 85.048C149.712 85.064 149.592 85.072 149.488 85.072ZM151.303 85V75.916H152.659V79.78L152.443 79.612C152.603 79.204 152.859 78.896 153.211 78.688C153.563 78.472 153.971 78.364 154.435 78.364C154.915 78.364 155.339 78.468 155.707 78.676C156.075 78.884 156.363 79.172 156.571 79.54C156.779 79.908 156.883 80.328 156.883 80.8V85H155.539V81.172C155.539 80.844 155.475 80.568 155.347 80.344C155.227 80.112 155.059 79.936 154.843 79.816C154.627 79.688 154.379 79.624 154.099 79.624C153.827 79.624 153.579 79.688 153.355 79.816C153.139 79.936 152.967 80.112 152.839 80.344C152.719 80.576 152.659 80.852 152.659 81.172V85H151.303ZM160.495 85.144C159.831 85.144 159.247 84.98 158.743 84.652C158.247 84.324 157.899 83.884 157.699 83.332L158.743 82.84C158.919 83.208 159.159 83.5 159.463 83.716C159.775 83.932 160.119 84.04 160.495 84.04C160.815 84.04 161.075 83.968 161.275 83.824C161.475 83.68 161.575 83.484 161.575 83.236C161.575 83.076 161.531 82.948 161.443 82.852C161.355 82.748 161.243 82.664 161.107 82.6C160.979 82.536 160.847 82.488 160.711 82.456L159.691 82.168C159.131 82.008 158.711 81.768 158.431 81.448C158.159 81.12 158.023 80.74 158.023 80.308C158.023 79.916 158.123 79.576 158.323 79.288C158.523 78.992 158.799 78.764 159.151 78.604C159.503 78.444 159.899 78.364 160.339 78.364C160.931 78.364 161.459 78.512 161.923 78.808C162.387 79.096 162.715 79.5 162.907 80.02L161.863 80.512C161.735 80.2 161.531 79.952 161.251 79.768C160.979 79.584 160.671 79.492 160.327 79.492C160.031 79.492 159.795 79.564 159.619 79.708C159.443 79.844 159.355 80.024 159.355 80.248C159.355 80.4 159.395 80.528 159.475 80.632C159.555 80.728 159.659 80.808 159.787 80.872C159.915 80.928 160.047 80.976 160.183 81.016L161.239 81.328C161.775 81.48 162.187 81.72 162.475 82.048C162.763 82.368 162.907 82.752 162.907 83.2C162.907 83.584 162.803 83.924 162.595 84.22C162.395 84.508 162.115 84.736 161.755 84.904C161.395 85.064 160.975 85.144 160.495 85.144Z" fill="#96DFBD"/>
<path d="M112.732 108.168C112.069 108.168 111.453 108.047 110.884 107.804C110.324 107.561 109.839 107.225 109.428 106.796C109.027 106.357 108.733 105.849 108.546 105.27L110.128 104.584C110.38 105.181 110.744 105.653 111.22 105.998C111.696 106.334 112.233 106.502 112.83 106.502C113.166 106.502 113.455 106.451 113.698 106.348C113.95 106.236 114.141 106.087 114.272 105.9C114.412 105.713 114.482 105.489 114.482 105.228C114.482 104.92 114.389 104.668 114.202 104.472C114.025 104.267 113.754 104.108 113.39 103.996L111.388 103.352C110.576 103.1 109.965 102.722 109.554 102.218C109.143 101.714 108.938 101.121 108.938 100.44C108.938 99.8427 109.083 99.3153 109.372 98.858C109.671 98.4007 110.081 98.046 110.604 97.794C111.136 97.5327 111.743 97.402 112.424 97.402C113.049 97.402 113.623 97.514 114.146 97.738C114.669 97.9527 115.117 98.256 115.49 98.648C115.873 99.0307 116.157 99.4833 116.344 100.006L114.776 100.706C114.571 100.183 114.263 99.782 113.852 99.502C113.441 99.2127 112.965 99.068 112.424 99.068C112.107 99.068 111.827 99.124 111.584 99.236C111.341 99.3387 111.15 99.488 111.01 99.684C110.879 99.8707 110.814 100.095 110.814 100.356C110.814 100.645 110.907 100.902 111.094 101.126C111.281 101.341 111.565 101.509 111.948 101.63L113.866 102.232C114.697 102.503 115.317 102.876 115.728 103.352C116.148 103.828 116.358 104.416 116.358 105.116C116.358 105.713 116.204 106.241 115.896 106.698C115.588 107.155 115.163 107.515 114.622 107.776C114.081 108.037 113.451 108.168 112.732 108.168ZM112.06 109.4V96.17H113.25V109.4H112.06ZM119.206 108V99.194H117.19V97.57H121.11V108H119.206ZM126.575 108.168C125.819 108.168 125.161 108.028 124.601 107.748C124.05 107.459 123.621 107.071 123.313 106.586C123.014 106.101 122.865 105.569 122.865 104.99C122.865 104.309 123.047 103.735 123.411 103.268C123.775 102.792 124.302 102.442 124.993 102.218L124.881 102.68C124.386 102.521 123.994 102.213 123.705 101.756C123.425 101.299 123.285 100.795 123.285 100.244C123.285 99.6933 123.425 99.2033 123.705 98.774C123.985 98.3447 124.372 98.0087 124.867 97.766C125.362 97.5233 125.931 97.402 126.575 97.402C127.21 97.402 127.77 97.5233 128.255 97.766C128.75 98.0087 129.137 98.3447 129.417 98.774C129.706 99.2033 129.851 99.6933 129.851 100.244C129.851 100.804 129.706 101.313 129.417 101.77C129.137 102.218 128.75 102.526 128.255 102.694L128.157 102.204C128.848 102.447 129.375 102.806 129.739 103.282C130.103 103.749 130.285 104.323 130.285 105.004C130.285 105.583 130.131 106.115 129.823 106.6C129.524 107.076 129.095 107.459 128.535 107.748C127.984 108.028 127.331 108.168 126.575 108.168ZM126.575 106.558C126.939 106.558 127.256 106.493 127.527 106.362C127.798 106.222 128.008 106.031 128.157 105.788C128.306 105.536 128.381 105.251 128.381 104.934C128.381 104.607 128.306 104.327 128.157 104.094C128.008 103.851 127.798 103.665 127.527 103.534C127.256 103.394 126.939 103.324 126.575 103.324C126.211 103.324 125.894 103.394 125.623 103.534C125.362 103.665 125.156 103.851 125.007 104.094C124.858 104.327 124.783 104.607 124.783 104.934C124.783 105.251 124.858 105.536 125.007 105.788C125.156 106.031 125.362 106.222 125.623 106.362C125.894 106.493 126.211 106.558 126.575 106.558ZM126.575 101.714C126.846 101.714 127.084 101.653 127.289 101.532C127.494 101.411 127.653 101.252 127.765 101.056C127.886 100.851 127.947 100.617 127.947 100.356C127.947 100.095 127.886 99.866 127.765 99.67C127.653 99.4647 127.494 99.306 127.289 99.194C127.084 99.0727 126.846 99.012 126.575 99.012C126.304 99.012 126.062 99.0727 125.847 99.194C125.642 99.306 125.478 99.4647 125.357 99.67C125.245 99.866 125.189 100.095 125.189 100.356C125.189 100.617 125.245 100.851 125.357 101.056C125.478 101.252 125.642 101.411 125.847 101.532C126.062 101.653 126.304 101.714 126.575 101.714ZM135.673 108.168C134.842 108.168 134.114 107.944 133.489 107.496C132.863 107.048 132.373 106.418 132.019 105.606C131.673 104.794 131.501 103.851 131.501 102.778C131.501 101.695 131.673 100.753 132.019 99.95C132.364 99.1473 132.849 98.522 133.475 98.074C134.1 97.626 134.828 97.402 135.659 97.402C136.508 97.402 137.241 97.626 137.857 98.074C138.482 98.522 138.972 99.152 139.327 99.964C139.681 100.767 139.859 101.705 139.859 102.778C139.859 103.851 139.681 104.794 139.327 105.606C138.981 106.409 138.496 107.039 137.871 107.496C137.245 107.944 136.513 108.168 135.673 108.168ZM135.687 106.432C136.163 106.432 136.569 106.287 136.905 105.998C137.241 105.699 137.497 105.279 137.675 104.738C137.861 104.187 137.955 103.534 137.955 102.778C137.955 102.022 137.861 101.373 137.675 100.832C137.497 100.281 137.236 99.8613 136.891 99.572C136.555 99.2827 136.144 99.138 135.659 99.138C135.192 99.138 134.791 99.2827 134.455 99.572C134.119 99.8613 133.857 100.281 133.671 100.832C133.493 101.373 133.405 102.022 133.405 102.778C133.405 103.525 133.493 104.173 133.671 104.724C133.857 105.265 134.119 105.685 134.455 105.984C134.8 106.283 135.211 106.432 135.687 106.432ZM145.305 108.168C144.474 108.168 143.746 107.944 143.121 107.496C142.495 107.048 142.005 106.418 141.651 105.606C141.305 104.794 141.133 103.851 141.133 102.778C141.133 101.695 141.305 100.753 141.651 99.95C141.996 99.1473 142.481 98.522 143.107 98.074C143.732 97.626 144.46 97.402 145.291 97.402C146.14 97.402 146.873 97.626 147.489 98.074C148.114 98.522 148.604 99.152 148.959 99.964C149.313 100.767 149.491 101.705 149.491 102.778C149.491 103.851 149.313 104.794 148.959 105.606C148.613 106.409 148.128 107.039 147.503 107.496C146.877 107.944 146.145 108.168 145.305 108.168ZM145.319 106.432C145.795 106.432 146.201 106.287 146.537 105.998C146.873 105.699 147.129 105.279 147.307 104.738C147.493 104.187 147.587 103.534 147.587 102.778C147.587 102.022 147.493 101.373 147.307 100.832C147.129 100.281 146.868 99.8613 146.523 99.572C146.187 99.2827 145.776 99.138 145.291 99.138C144.824 99.138 144.423 99.2827 144.087 99.572C143.751 99.8613 143.489 100.281 143.303 100.832C143.125 101.373 143.037 102.022 143.037 102.778C143.037 103.525 143.125 104.173 143.303 104.724C143.489 105.265 143.751 105.685 144.087 105.984C144.432 106.283 144.843 106.432 145.319 106.432ZM151.703 108V106.04H153.551V108H151.703ZM159.948 108.168C159.117 108.168 158.389 107.944 157.764 107.496C157.139 107.048 156.649 106.418 156.294 105.606C155.949 104.794 155.776 103.851 155.776 102.778C155.776 101.695 155.949 100.753 156.294 99.95C156.639 99.1473 157.125 98.522 157.75 98.074C158.375 97.626 159.103 97.402 159.934 97.402C160.783 97.402 161.516 97.626 162.132 98.074C162.757 98.522 163.247 99.152 163.602 99.964C163.957 100.767 164.134 101.705 164.134 102.778C164.134 103.851 163.957 104.794 163.602 105.606C163.257 106.409 162.771 107.039 162.146 107.496C161.521 107.944 160.788 108.168 159.948 108.168ZM159.962 106.432C160.438 106.432 160.844 106.287 161.18 105.998C161.516 105.699 161.773 105.279 161.95 104.738C162.137 104.187 162.23 103.534 162.23 102.778C162.23 102.022 162.137 101.373 161.95 100.832C161.773 100.281 161.511 99.8613 161.166 99.572C160.83 99.2827 160.419 99.138 159.934 99.138C159.467 99.138 159.066 99.2827 158.73 99.572C158.394 99.8613 158.133 100.281 157.946 100.832C157.769 101.373 157.68 102.022 157.68 102.778C157.68 103.525 157.769 104.173 157.946 104.724C158.133 105.265 158.394 105.685 158.73 105.984C159.075 106.283 159.486 106.432 159.962 106.432ZM169.58 108.168C168.749 108.168 168.021 107.944 167.396 107.496C166.771 107.048 166.281 106.418 165.926 105.606C165.581 104.794 165.408 103.851 165.408 102.778C165.408 101.695 165.581 100.753 165.926 99.95C166.271 99.1473 166.757 98.522 167.382 98.074C168.007 97.626 168.735 97.402 169.566 97.402C170.415 97.402 171.148 97.626 171.764 98.074C172.389 98.522 172.879 99.152 173.234 99.964C173.589 100.767 173.766 101.705 173.766 102.778C173.766 103.851 173.589 104.794 173.234 105.606C172.889 106.409 172.403 107.039 171.778 107.496C171.153 107.944 170.42 108.168 169.58 108.168ZM169.594 106.432C170.07 106.432 170.476 106.287 170.812 105.998C171.148 105.699 171.405 105.279 171.582 104.738C171.769 104.187 171.862 103.534 171.862 102.778C171.862 102.022 171.769 101.373 171.582 100.832C171.405 100.281 171.143 99.8613 170.798 99.572C170.462 99.2827 170.051 99.138 169.566 99.138C169.099 99.138 168.698 99.2827 168.362 99.572C168.026 99.8613 167.765 100.281 167.578 100.832C167.401 101.373 167.312 102.022 167.312 102.778C167.312 103.525 167.401 104.173 167.578 104.724C167.765 105.265 168.026 105.685 168.362 105.984C168.707 106.283 169.118 106.432 169.594 106.432Z" fill="#F2FBF7"/>
<path d="M183.224 109.68L187.872 98.13H189.874L185.226 109.68H183.224ZM190.656 108V100.384H192.378V102.148L192.182 101.854C192.322 101.303 192.602 100.893 193.022 100.622C193.442 100.351 193.937 100.216 194.506 100.216C195.131 100.216 195.682 100.379 196.158 100.706C196.634 101.033 196.942 101.462 197.082 101.994L196.564 102.036C196.797 101.429 197.147 100.977 197.614 100.678C198.081 100.37 198.617 100.216 199.224 100.216C199.765 100.216 200.246 100.337 200.666 100.58C201.095 100.823 201.431 101.163 201.674 101.602C201.917 102.031 202.038 102.531 202.038 103.1V108H200.204V103.534C200.204 103.198 200.143 102.909 200.022 102.666C199.901 102.423 199.733 102.237 199.518 102.106C199.303 101.966 199.042 101.896 198.734 101.896C198.445 101.896 198.188 101.966 197.964 102.106C197.74 102.237 197.567 102.423 197.446 102.666C197.325 102.909 197.264 103.198 197.264 103.534V108H195.43V103.534C195.43 103.198 195.369 102.909 195.248 102.666C195.127 102.423 194.954 102.237 194.73 102.106C194.515 101.966 194.259 101.896 193.96 101.896C193.671 101.896 193.414 101.966 193.19 102.106C192.966 102.237 192.793 102.423 192.672 102.666C192.551 102.909 192.49 103.198 192.49 103.534V108H190.656ZM207.034 108.168C206.287 108.168 205.606 107.995 204.99 107.65C204.383 107.305 203.898 106.833 203.534 106.236C203.179 105.639 203.002 104.957 203.002 104.192C203.002 103.427 203.179 102.745 203.534 102.148C203.898 101.551 204.383 101.079 204.99 100.734C205.596 100.389 206.278 100.216 207.034 100.216C207.78 100.216 208.457 100.389 209.064 100.734C209.67 101.079 210.151 101.551 210.506 102.148C210.87 102.736 211.052 103.417 211.052 104.192C211.052 104.957 210.87 105.639 210.506 106.236C210.142 106.833 209.656 107.305 209.05 107.65C208.443 107.995 207.771 108.168 207.034 108.168ZM207.034 106.488C207.444 106.488 207.804 106.39 208.112 106.194C208.429 105.998 208.676 105.727 208.854 105.382C209.04 105.027 209.134 104.631 209.134 104.192C209.134 103.744 209.04 103.352 208.854 103.016C208.676 102.671 208.429 102.4 208.112 102.204C207.804 101.999 207.444 101.896 207.034 101.896C206.614 101.896 206.245 101.999 205.928 102.204C205.61 102.4 205.358 102.671 205.172 103.016C204.994 103.352 204.906 103.744 204.906 104.192C204.906 104.631 204.994 105.027 205.172 105.382C205.358 105.727 205.61 105.998 205.928 106.194C206.245 106.39 206.614 106.488 207.034 106.488Z" fill="#F2FBF7"/>
</g>
<rect x="244.5" y="65.5" width="135" height="50" rx="7.5" fill="#D8F5E7"/>
<rect x="244.5" y="65.5" width="135" height="50" rx="7.5" stroke="#96DFBD"/>
<path d="M266.516 85.144C266.036 85.144 265.584 85.056 265.16 84.88C264.744 84.704 264.384 84.456 264.08 84.136C263.784 83.816 263.572 83.44 263.444 83.008L264.644 82.552C264.804 82.976 265.048 83.304 265.376 83.536C265.704 83.768 266.084 83.884 266.516 83.884C266.868 83.884 267.172 83.816 267.428 83.68C267.692 83.544 267.896 83.352 268.04 83.104C268.192 82.856 268.268 82.556 268.268 82.204C268.268 81.86 268.192 81.564 268.04 81.316C267.896 81.068 267.692 80.88 267.428 80.752C267.172 80.624 266.868 80.56 266.516 80.56C266.372 80.56 266.224 80.572 266.072 80.596C265.928 80.62 265.8 80.652 265.688 80.692L265.376 80.032L267.728 77.26H263.924V76.06H269.312V77.2L267.008 79.96L266.972 79.504C267.508 79.512 267.98 79.632 268.388 79.864C268.796 80.088 269.112 80.4 269.336 80.8C269.568 81.192 269.684 81.648 269.684 82.168C269.684 82.728 269.548 83.236 269.276 83.692C269.004 84.14 268.628 84.496 268.148 84.76C267.676 85.016 267.132 85.144 266.516 85.144ZM272.878 85V76.06H274.198L277.558 80.716H276.898L280.198 76.06H281.518V85H280.114V77.728L280.642 77.872L277.27 82.48H277.126L273.826 77.872L274.294 77.728V85H272.878ZM286.126 85.144C285.502 85.144 284.93 84.996 284.41 84.7C283.898 84.404 283.49 84 283.186 83.488C282.882 82.976 282.73 82.396 282.73 81.748C282.73 81.092 282.882 80.512 283.186 80.008C283.49 79.496 283.898 79.096 284.41 78.808C284.922 78.512 285.494 78.364 286.126 78.364C286.766 78.364 287.338 78.512 287.842 78.808C288.354 79.096 288.758 79.496 289.054 80.008C289.358 80.512 289.51 81.092 289.51 81.748C289.51 82.404 289.358 82.988 289.054 83.5C288.75 84.012 288.342 84.416 287.83 84.712C287.318 85 286.75 85.144 286.126 85.144ZM286.126 83.884C286.51 83.884 286.85 83.792 287.146 83.608C287.442 83.424 287.674 83.172 287.842 82.852C288.018 82.524 288.106 82.156 288.106 81.748C288.106 81.34 288.018 80.976 287.842 80.656C287.674 80.336 287.442 80.084 287.146 79.9C286.85 79.716 286.51 79.624 286.126 79.624C285.75 79.624 285.41 79.716 285.106 79.9C284.81 80.084 284.574 80.336 284.398 80.656C284.23 80.976 284.146 81.34 284.146 81.748C284.146 82.156 284.23 82.524 284.398 82.852C284.574 83.172 284.81 83.424 285.106 83.608C285.41 83.792 285.75 83.884 286.126 83.884ZM290.594 85V78.508H291.89V79.78L291.734 79.612C291.894 79.204 292.15 78.896 292.502 78.688C292.854 78.472 293.262 78.364 293.726 78.364C294.206 78.364 294.63 78.468 294.998 78.676C295.366 78.884 295.654 79.172 295.862 79.54C296.07 79.908 296.174 80.332 296.174 80.812V85H294.83V81.172C294.83 80.844 294.77 80.568 294.65 80.344C294.53 80.112 294.358 79.936 294.134 79.816C293.918 79.688 293.67 79.624 293.39 79.624C293.11 79.624 292.858 79.688 292.634 79.816C292.418 79.936 292.25 80.112 292.13 80.344C292.01 80.576 291.95 80.852 291.95 81.172V85H290.594ZM300.193 85.072C299.513 85.072 298.985 84.88 298.609 84.496C298.233 84.112 298.045 83.572 298.045 82.876V79.732H296.905V78.508H297.085C297.389 78.508 297.625 78.42 297.793 78.244C297.961 78.068 298.045 77.828 298.045 77.524V77.02H299.401V78.508H300.877V79.732H299.401V82.816C299.401 83.04 299.437 83.232 299.509 83.392C299.581 83.544 299.697 83.664 299.857 83.752C300.017 83.832 300.225 83.872 300.481 83.872C300.545 83.872 300.617 83.868 300.697 83.86C300.777 83.852 300.853 83.844 300.925 83.836V85C300.813 85.016 300.689 85.032 300.553 85.048C300.417 85.064 300.297 85.072 300.193 85.072ZM302.008 85V75.916H303.364V79.78L303.148 79.612C303.308 79.204 303.564 78.896 303.916 78.688C304.268 78.472 304.676 78.364 305.14 78.364C305.62 78.364 306.044 78.468 306.412 78.676C306.78 78.884 307.068 79.172 307.276 79.54C307.484 79.908 307.588 80.328 307.588 80.8V85H306.244V81.172C306.244 80.844 306.18 80.568 306.052 80.344C305.932 80.112 305.764 79.936 305.548 79.816C305.332 79.688 305.084 79.624 304.804 79.624C304.532 79.624 304.284 79.688 304.06 79.816C303.844 79.936 303.672 80.112 303.544 80.344C303.424 80.576 303.364 80.852 303.364 81.172V85H302.008ZM311.199 85.144C310.535 85.144 309.951 84.98 309.447 84.652C308.951 84.324 308.603 83.884 308.403 83.332L309.447 82.84C309.623 83.208 309.863 83.5 310.167 83.716C310.479 83.932 310.823 84.04 311.199 84.04C311.519 84.04 311.78 83.968 311.98 83.824C312.179 83.68 312.279 83.484 312.279 83.236C312.279 83.076 312.235 82.948 312.148 82.852C312.059 82.748 311.947 82.664 311.811 82.6C311.683 82.536 311.551 82.488 311.415 82.456L310.395 82.168C309.835 82.008 309.415 81.768 309.135 81.448C308.863 81.12 308.727 80.74 308.727 80.308C308.727 79.916 308.827 79.576 309.027 79.288C309.227 78.992 309.503 78.764 309.855 78.604C310.207 78.444 310.603 78.364 311.043 78.364C311.635 78.364 312.163 78.512 312.627 78.808C313.091 79.096 313.419 79.5 313.611 80.02L312.567 80.512C312.439 80.2 312.235 79.952 311.956 79.768C311.683 79.584 311.375 79.492 311.031 79.492C310.735 79.492 310.499 79.564 310.323 79.708C310.147 79.844 310.059 80.024 310.059 80.248C310.059 80.4 310.099 80.528 310.179 80.632C310.259 80.728 310.363 80.808 310.491 80.872C310.619 80.928 310.751 80.976 310.887 81.016L311.943 81.328C312.479 81.48 312.891 81.72 313.179 82.048C313.467 82.368 313.611 82.752 313.611 83.2C313.611 83.584 313.507 83.924 313.299 84.22C313.099 84.508 312.819 84.736 312.459 84.904C312.099 85.064 311.679 85.144 311.199 85.144Z" fill="#C4EEDA"/>
<path d="M267.732 108.168C267.069 108.168 266.453 108.047 265.884 107.804C265.324 107.561 264.839 107.225 264.428 106.796C264.027 106.357 263.733 105.849 263.546 105.27L265.128 104.584C265.38 105.181 265.744 105.653 266.22 105.998C266.696 106.334 267.233 106.502 267.83 106.502C268.166 106.502 268.455 106.451 268.698 106.348C268.95 106.236 269.141 106.087 269.272 105.9C269.412 105.713 269.482 105.489 269.482 105.228C269.482 104.92 269.389 104.668 269.202 104.472C269.025 104.267 268.754 104.108 268.39 103.996L266.388 103.352C265.576 103.1 264.965 102.722 264.554 102.218C264.143 101.714 263.938 101.121 263.938 100.44C263.938 99.8427 264.083 99.3153 264.372 98.858C264.671 98.4007 265.081 98.046 265.604 97.794C266.136 97.5327 266.743 97.402 267.424 97.402C268.049 97.402 268.623 97.514 269.146 97.738C269.669 97.9527 270.117 98.256 270.49 98.648C270.873 99.0307 271.157 99.4833 271.344 100.006L269.776 100.706C269.571 100.183 269.263 99.782 268.852 99.502C268.441 99.2127 267.965 99.068 267.424 99.068C267.107 99.068 266.827 99.124 266.584 99.236C266.341 99.3387 266.15 99.488 266.01 99.684C265.879 99.8707 265.814 100.095 265.814 100.356C265.814 100.645 265.907 100.902 266.094 101.126C266.281 101.341 266.565 101.509 266.948 101.63L268.866 102.232C269.697 102.503 270.317 102.876 270.728 103.352C271.148 103.828 271.358 104.416 271.358 105.116C271.358 105.713 271.204 106.241 270.896 106.698C270.588 107.155 270.163 107.515 269.622 107.776C269.081 108.037 268.451 108.168 267.732 108.168ZM267.06 109.4V96.17H268.25V109.4H267.06ZM275.886 108.168C275.317 108.168 274.776 108.065 274.262 107.86C273.758 107.645 273.324 107.347 272.96 106.964C272.606 106.572 272.363 106.11 272.232 105.578L273.898 104.99C274.066 105.466 274.323 105.83 274.668 106.082C275.014 106.325 275.42 106.446 275.886 106.446C276.26 106.446 276.582 106.376 276.852 106.236C277.132 106.096 277.352 105.895 277.51 105.634C277.669 105.363 277.748 105.046 277.748 104.682C277.748 104.318 277.669 104.01 277.51 103.758C277.361 103.497 277.146 103.296 276.866 103.156C276.586 103.016 276.255 102.946 275.872 102.946C275.695 102.946 275.508 102.965 275.312 103.002C275.126 103.039 274.958 103.095 274.808 103.17L274.374 102.26L277.076 99.18H272.82V97.57H279.218V99.068L276.502 102.246L276.53 101.532C277.156 101.541 277.702 101.677 278.168 101.938C278.635 102.199 278.999 102.559 279.26 103.016C279.522 103.473 279.652 104.01 279.652 104.626C279.652 105.298 279.489 105.905 279.162 106.446C278.836 106.978 278.388 107.398 277.818 107.706C277.249 108.014 276.605 108.168 275.886 108.168ZM285.019 108.168C284.188 108.168 283.46 107.944 282.835 107.496C282.21 107.048 281.72 106.418 281.365 105.606C281.02 104.794 280.847 103.851 280.847 102.778C280.847 101.695 281.02 100.753 281.365 99.95C281.71 99.1473 282.196 98.522 282.821 98.074C283.446 97.626 284.174 97.402 285.005 97.402C285.854 97.402 286.587 97.626 287.203 98.074C287.828 98.522 288.318 99.152 288.673 99.964C289.028 100.767 289.205 101.705 289.205 102.778C289.205 103.851 289.028 104.794 288.673 105.606C288.328 106.409 287.842 107.039 287.217 107.496C286.592 107.944 285.859 108.168 285.019 108.168ZM285.033 106.432C285.509 106.432 285.915 106.287 286.251 105.998C286.587 105.699 286.844 105.279 287.021 104.738C287.208 104.187 287.301 103.534 287.301 102.778C287.301 102.022 287.208 101.373 287.021 100.832C286.844 100.281 286.582 99.8613 286.237 99.572C285.901 99.2827 285.49 99.138 285.005 99.138C284.538 99.138 284.137 99.2827 283.801 99.572C283.465 99.8613 283.204 100.281 283.017 100.832C282.84 101.373 282.751 102.022 282.751 102.778C282.751 103.525 282.84 104.173 283.017 104.724C283.204 105.265 283.465 105.685 283.801 105.984C284.146 106.283 284.557 106.432 285.033 106.432ZM294.651 108.168C293.82 108.168 293.092 107.944 292.467 107.496C291.842 107.048 291.352 106.418 290.997 105.606C290.652 104.794 290.479 103.851 290.479 102.778C290.479 101.695 290.652 100.753 290.997 99.95C291.342 99.1473 291.828 98.522 292.453 98.074C293.078 97.626 293.806 97.402 294.637 97.402C295.486 97.402 296.219 97.626 296.835 98.074C297.46 98.522 297.95 99.152 298.305 99.964C298.66 100.767 298.837 101.705 298.837 102.778C298.837 103.851 298.66 104.794 298.305 105.606C297.96 106.409 297.474 107.039 296.849 107.496C296.224 107.944 295.491 108.168 294.651 108.168ZM294.665 106.432C295.141 106.432 295.547 106.287 295.883 105.998C296.219 105.699 296.476 105.279 296.653 104.738C296.84 104.187 296.933 103.534 296.933 102.778C296.933 102.022 296.84 101.373 296.653 100.832C296.476 100.281 296.214 99.8613 295.869 99.572C295.533 99.2827 295.122 99.138 294.637 99.138C294.17 99.138 293.769 99.2827 293.433 99.572C293.097 99.8613 292.836 100.281 292.649 100.832C292.472 101.373 292.383 102.022 292.383 102.778C292.383 103.525 292.472 104.173 292.649 104.724C292.836 105.265 293.097 105.685 293.433 105.984C293.778 106.283 294.189 106.432 294.665 106.432ZM301.049 108V106.04H302.897V108H301.049ZM309.294 108.168C308.464 108.168 307.736 107.944 307.11 107.496C306.485 107.048 305.995 106.418 305.64 105.606C305.295 104.794 305.122 103.851 305.122 102.778C305.122 101.695 305.295 100.753 305.64 99.95C305.986 99.1473 306.471 98.522 307.096 98.074C307.722 97.626 308.45 97.402 309.28 97.402C310.13 97.402 310.862 97.626 311.478 98.074C312.104 98.522 312.594 99.152 312.948 99.964C313.303 100.767 313.48 101.705 313.48 102.778C313.48 103.851 313.303 104.794 312.948 105.606C312.603 106.409 312.118 107.039 311.492 107.496C310.867 107.944 310.134 108.168 309.294 108.168ZM309.308 106.432C309.784 106.432 310.19 106.287 310.526 105.998C310.862 105.699 311.119 105.279 311.296 104.738C311.483 104.187 311.576 103.534 311.576 102.778C311.576 102.022 311.483 101.373 311.296 100.832C311.119 100.281 310.858 99.8613 310.512 99.572C310.176 99.2827 309.766 99.138 309.28 99.138C308.814 99.138 308.412 99.2827 308.076 99.572C307.74 99.8613 307.479 100.281 307.292 100.832C307.115 101.373 307.026 102.022 307.026 102.778C307.026 103.525 307.115 104.173 307.292 104.724C307.479 105.265 307.74 105.685 308.076 105.984C308.422 106.283 308.832 106.432 309.308 106.432ZM318.926 108.168C318.096 108.168 317.368 107.944 316.742 107.496C316.117 107.048 315.627 106.418 315.272 105.606C314.927 104.794 314.754 103.851 314.754 102.778C314.754 101.695 314.927 100.753 315.272 99.95C315.618 99.1473 316.103 98.522 316.728 98.074C317.354 97.626 318.082 97.402 318.912 97.402C319.762 97.402 320.494 97.626 321.11 98.074C321.736 98.522 322.226 99.152 322.58 99.964C322.935 100.767 323.112 101.705 323.112 102.778C323.112 103.851 322.935 104.794 322.58 105.606C322.235 106.409 321.75 107.039 321.124 107.496C320.499 107.944 319.766 108.168 318.926 108.168ZM318.94 106.432C319.416 106.432 319.822 106.287 320.158 105.998C320.494 105.699 320.751 105.279 320.928 104.738C321.115 104.187 321.208 103.534 321.208 102.778C321.208 102.022 321.115 101.373 320.928 100.832C320.751 100.281 320.49 99.8613 320.144 99.572C319.808 99.2827 319.398 99.138 318.912 99.138C318.446 99.138 318.044 99.2827 317.708 99.572C317.372 99.8613 317.111 100.281 316.924 100.832C316.747 101.373 316.658 102.022 316.658 102.778C316.658 103.525 316.747 104.173 316.924 104.724C317.111 105.265 317.372 105.685 317.708 105.984C318.054 106.283 318.464 106.432 318.94 106.432Z" fill="#96DFBD"/>
</g>
</g>
<defs>
<filter id="filter0_d_40_310" x="86" y="59" width="150" height="65" filterUnits="userSpaceOnUse" color-interpolation-filters="sRGB">
<feFlood flood-opacity="0" result="BackgroundImageFix"/>
<feColorMatrix in="SourceAlpha" type="matrix" values="0 0 0 0 0 0 0 0 0 0 0 0 0 0 0 0 0 0 127 0" result="hardAlpha"/>
<feMorphology radius="4" operator="dilate" in="SourceAlpha" result="effect1_dropShadow_40_310"/>
<feOffset dx="1" dy="1"/>
<feGaussianBlur stdDeviation="1.5"/>
<feComposite in2="hardAlpha" operator="out"/>
<feColorMatrix type="matrix" values="0 0 0 0 0.847059 0 0 0 0 0.960784 0 0 0 0 0.905882 0 0 0 0.4 0"/>
<feBlend mode="normal" in2="BackgroundImageFix" result="effect1_dropShadow_40_310"/>
<feBlend mode="normal" in="SourceGraphic" in2="effect1_dropShadow_40_310" result="shape"/>
</filter>
<radialGradient id="paint0_radial_40_310" cx="0" cy="0" r="1" gradientUnits="userSpaceOnUse" gradientTransform="translate(160 68) rotate(90) scale(110 173.668)">
<stop stop-color="#808080"/>
<stop offset="1" stop-color="#6B6B6B" stop-opacity="0.4"/>
</radialGradient>
<clipPath id="clip0_40_310">
<rect width="320" height="182" rx="16" fill="white"/>
</clipPath>
</defs>
</svg>
