<svg width="320" height="183" viewBox="0 0 320 183" fill="none" xmlns="http://www.w3.org/2000/svg">
<g clip-path="url(#clip0_41_117)">
<mask id="mask0_41_117" style="mask-type:alpha" maskUnits="userSpaceOnUse" x="-82" y="-52" width="484" height="292">
<rect x="-82" y="-52" width="484" height="292" fill="url(#paint0_radial_41_117)"/>
</mask>
<g mask="url(#mask0_41_117)">
<mask id="mask1_41_117" style="mask-type:alpha" maskUnits="userSpaceOnUse" x="-40" y="-43" width="411" height="274">
<rect x="-40" y="-43" width="411" height="274" fill="url(#paint1_linear_41_117)"/>
</mask>
<g mask="url(#mask1_41_117)">
<line x1="0.5" y1="26.5" x2="319.5" y2="26.5" stroke="#DEB814" stroke-linecap="round" stroke-dasharray="5 10"/>
<line x1="0.5" y1="58.5" x2="319.5" y2="58.5" stroke="#DEB814" stroke-linecap="round" stroke-dasharray="5 10"/>
<line x1="0.5" y1="90.5" x2="319.5" y2="90.5" stroke="#DEB814" stroke-linecap="round" stroke-dasharray="5 10"/>
<line x1="0.5" y1="122.5" x2="319.5" y2="122.5" stroke="#DEB814" stroke-linecap="round" stroke-dasharray="5 10"/>
<line x1="0.5" y1="154.5" x2="319.5" y2="154.5" stroke="#DEB814" stroke-linecap="round" stroke-dasharray="5 10"/>
</g>
<path d="M-26 218.5V144.5C147.254 143.763 219.461 111.41 291.5 -19H355.5V218.5H-26Z" stroke="#DEB814" stroke-width="2"/>
<path d="M-1.5 218V155C160.628 154.314 228.198 118.35 295.61 -3H355.5V218H-1.5Z" fill="#FBF9C6" stroke="#F3E251"/>
<path d="M134 45.5H186C193.456 45.5 199.5 51.5442 199.5 59C199.5 66.4558 193.456 72.5 186 72.5H134C126.544 72.5 120.5 66.4558 120.5 59C120.5 51.5442 126.544 45.5 134 45.5Z" fill="#99670F"/>
<path d="M134 45.5H186C193.456 45.5 199.5 51.5442 199.5 59C199.5 66.4558 193.456 72.5 186 72.5H134C126.544 72.5 120.5 66.4558 120.5 59C120.5 51.5442 126.544 45.5 134 45.5Z" stroke="#6C4417" stroke-linecap="round"/>
<path d="M140.056 64.144C139.496 64.144 138.976 64.04 138.496 63.832C138.016 63.616 137.608 63.324 137.272 62.956C136.936 62.588 136.688 62.164 136.528 61.684L137.728 61.18C137.944 61.732 138.26 62.156 138.676 62.452C139.092 62.748 139.572 62.896 140.116 62.896C140.436 62.896 140.716 62.848 140.956 62.752C141.196 62.648 141.38 62.504 141.508 62.32C141.644 62.136 141.712 61.924 141.712 61.684C141.712 61.356 141.62 61.096 141.436 60.904C141.252 60.712 140.98 60.56 140.62 60.448L138.94 59.92C138.268 59.712 137.756 59.396 137.404 58.972C137.052 58.54 136.876 58.036 136.876 57.46C136.876 56.956 137 56.516 137.248 56.14C137.496 55.756 137.836 55.456 138.268 55.24C138.708 55.024 139.208 54.916 139.768 54.916C140.304 54.916 140.792 55.012 141.232 55.204C141.672 55.388 142.048 55.644 142.36 55.972C142.68 56.3 142.912 56.68 143.056 57.112L141.88 57.628C141.704 57.156 141.428 56.792 141.052 56.536C140.684 56.28 140.256 56.152 139.768 56.152C139.472 56.152 139.212 56.204 138.988 56.308C138.764 56.404 138.588 56.548 138.46 56.74C138.34 56.924 138.28 57.14 138.28 57.388C138.28 57.676 138.372 57.932 138.556 58.156C138.74 58.38 139.02 58.548 139.396 58.66L140.956 59.152C141.668 59.368 142.204 59.68 142.564 60.088C142.924 60.488 143.104 60.988 143.104 61.588C143.104 62.084 142.972 62.524 142.708 62.908C142.452 63.292 142.096 63.596 141.64 63.82C141.184 64.036 140.656 64.144 140.056 64.144ZM139.504 65.2V53.86H140.464V65.2H139.504ZM145.282 64V56.26H143.566V55.06H146.686V64H145.282ZM151.577 64.144C150.865 64.144 150.241 63.952 149.705 63.568C149.169 63.176 148.749 62.636 148.445 61.948C148.149 61.252 148.001 60.444 148.001 59.524C148.001 58.596 148.149 57.788 148.445 57.1C148.749 56.412 149.165 55.876 149.693 55.492C150.229 55.108 150.853 54.916 151.565 54.916C152.277 54.916 152.897 55.108 153.425 55.492C153.961 55.876 154.377 56.416 154.673 57.112C154.977 57.8 155.129 58.604 155.129 59.524C155.129 60.444 154.981 61.252 154.685 61.948C154.389 62.636 153.973 63.176 153.437 63.568C152.909 63.952 152.289 64.144 151.577 64.144ZM151.577 62.848C152.017 62.848 152.397 62.712 152.717 62.44C153.037 62.168 153.285 61.784 153.461 61.288C153.637 60.792 153.725 60.204 153.725 59.524C153.725 58.844 153.637 58.256 153.461 57.76C153.285 57.264 153.037 56.88 152.717 56.608C152.397 56.336 152.013 56.2 151.565 56.2C151.125 56.2 150.745 56.336 150.425 56.608C150.105 56.88 149.857 57.264 149.681 57.76C149.505 58.256 149.417 58.844 149.417 59.524C149.417 60.196 149.505 60.784 149.681 61.288C149.857 61.784 150.105 62.168 150.425 62.44C150.753 62.712 151.137 62.848 151.577 62.848ZM156.399 65.764V65.104C156.663 65.04 156.867 64.916 157.011 64.732C157.155 64.556 157.243 64.312 157.275 64H156.639V62.44H158.019V63.46C158.019 64.1 157.883 64.616 157.611 65.008C157.339 65.4 156.935 65.652 156.399 65.764ZM162.904 64.144C162.192 64.144 161.568 63.952 161.032 63.568C160.496 63.176 160.076 62.636 159.772 61.948C159.476 61.252 159.328 60.444 159.328 59.524C159.328 58.596 159.476 57.788 159.772 57.1C160.076 56.412 160.492 55.876 161.02 55.492C161.556 55.108 162.18 54.916 162.892 54.916C163.604 54.916 164.224 55.108 164.752 55.492C165.288 55.876 165.704 56.416 166 57.112C166.304 57.8 166.456 58.604 166.456 59.524C166.456 60.444 166.308 61.252 166.012 61.948C165.716 62.636 165.3 63.176 164.764 63.568C164.236 63.952 163.616 64.144 162.904 64.144ZM162.904 62.848C163.344 62.848 163.724 62.712 164.044 62.44C164.364 62.168 164.612 61.784 164.788 61.288C164.964 60.792 165.052 60.204 165.052 59.524C165.052 58.844 164.964 58.256 164.788 57.76C164.612 57.264 164.364 56.88 164.044 56.608C163.724 56.336 163.34 56.2 162.892 56.2C162.452 56.2 162.072 56.336 161.752 56.608C161.432 56.88 161.184 57.264 161.008 57.76C160.832 58.256 160.744 58.844 160.744 59.524C160.744 60.196 160.832 60.784 161.008 61.288C161.184 61.784 161.432 62.168 161.752 62.44C162.08 62.712 162.464 62.848 162.904 62.848ZM170.894 64.144C170.182 64.144 169.558 63.952 169.022 63.568C168.486 63.176 168.066 62.636 167.762 61.948C167.466 61.252 167.318 60.444 167.318 59.524C167.318 58.596 167.466 57.788 167.762 57.1C168.066 56.412 168.482 55.876 169.01 55.492C169.546 55.108 170.17 54.916 170.882 54.916C171.594 54.916 172.214 55.108 172.742 55.492C173.278 55.876 173.694 56.416 173.99 57.112C174.294 57.8 174.446 58.604 174.446 59.524C174.446 60.444 174.298 61.252 174.002 61.948C173.706 62.636 173.29 63.176 172.754 63.568C172.226 63.952 171.606 64.144 170.894 64.144ZM170.894 62.848C171.334 62.848 171.714 62.712 172.034 62.44C172.354 62.168 172.602 61.784 172.778 61.288C172.954 60.792 173.042 60.204 173.042 59.524C173.042 58.844 172.954 58.256 172.778 57.76C172.602 57.264 172.354 56.88 172.034 56.608C171.714 56.336 171.33 56.2 170.882 56.2C170.442 56.2 170.062 56.336 169.742 56.608C169.422 56.88 169.174 57.264 168.998 57.76C168.822 58.256 168.734 58.844 168.734 59.524C168.734 60.196 168.822 60.784 168.998 61.288C169.174 61.784 169.422 62.168 169.742 62.44C170.07 62.712 170.454 62.848 170.894 62.848ZM178.884 64.144C178.172 64.144 177.548 63.952 177.012 63.568C176.476 63.176 176.056 62.636 175.752 61.948C175.456 61.252 175.308 60.444 175.308 59.524C175.308 58.596 175.456 57.788 175.752 57.1C176.056 56.412 176.472 55.876 177 55.492C177.536 55.108 178.16 54.916 178.872 54.916C179.584 54.916 180.204 55.108 180.732 55.492C181.268 55.876 181.684 56.416 181.98 57.112C182.284 57.8 182.436 58.604 182.436 59.524C182.436 60.444 182.288 61.252 181.992 61.948C181.696 62.636 181.28 63.176 180.744 63.568C180.216 63.952 179.596 64.144 178.884 64.144ZM178.884 62.848C179.324 62.848 179.704 62.712 180.024 62.44C180.344 62.168 180.592 61.784 180.768 61.288C180.944 60.792 181.032 60.204 181.032 59.524C181.032 58.844 180.944 58.256 180.768 57.76C180.592 57.264 180.344 56.88 180.024 56.608C179.704 56.336 179.32 56.2 178.872 56.2C178.432 56.2 178.052 56.336 177.732 56.608C177.412 56.88 177.164 57.264 176.988 57.76C176.812 58.256 176.724 58.844 176.724 59.524C176.724 60.196 176.812 60.784 176.988 61.288C177.164 61.784 177.412 62.168 177.732 62.44C178.06 62.712 178.444 62.848 178.884 62.848Z" fill="#FCFBE1"/>
</g>
</g>
<defs>
<radialGradient id="paint0_radial_41_117" cx="0" cy="0" r="1" gradientUnits="userSpaceOnUse" gradientTransform="translate(160 94) rotate(90) scale(120 198.904)">
<stop stop-color="#D9D9D9"/>
<stop offset="1" stop-color="#737373" stop-opacity="0"/>
</radialGradient>
<linearGradient id="paint1_linear_41_117" x1="396" y1="-43" x2="-13.5" y2="196" gradientUnits="userSpaceOnUse">
<stop stop-color="#D9D9D9"/>
<stop offset="1" stop-color="#737373" stop-opacity="0.3"/>
</linearGradient>
<clipPath id="clip0_41_117">
<rect width="320" height="183" fill="white"/>
</clipPath>
</defs>
</svg>
