<svg width="359" height="90" viewBox="0 0 359 90" fill="none" xmlns="http://www.w3.org/2000/svg">
<g clip-path="url(#clip0_49_675)">
<mask id="mask0_49_675" style="mask-type:alpha" maskUnits="userSpaceOnUse" x="-39" y="-74" width="474" height="268">
<rect x="-38.167" y="-74" width="473" height="268" fill="url(#paint0_radial_49_675)"/>
</mask>
<g mask="url(#mask0_49_675)">
<rect x="-35.917" y="25.25" width="79.5" height="39.5" rx="1.75" fill="#EBEAFD"/>
<rect x="-35.917" y="25.25" width="79.5" height="39.5" rx="1.75" stroke="#BDBAFA" stroke-width="0.5"/>
<rect x="-28.167" y="33" width="64" height="4" fill="#F4F5FE"/>
<rect x="-28.167" y="39" width="64" height="2" fill="#F4F5FE"/>
<rect x="-28.167" y="49" width="38" height="4" fill="#F4F5FE"/>
<rect x="-28.167" y="55" width="38" height="2" fill="#F4F5FE"/>
<rect x="52.083" y="25.25" width="79.5" height="39.5" rx="1.75" fill="#EBEAFD"/>
<rect x="52.083" y="25.25" width="79.5" height="39.5" rx="1.75" stroke="#BDBAFA" stroke-width="0.5"/>
<rect x="59.833" y="33" width="64" height="4" fill="#F4F5FE"/>
<rect x="59.833" y="39" width="64" height="2" fill="#F4F5FE"/>
<rect x="59.833" y="49" width="38" height="4" fill="#F4F5FE"/>
<rect x="59.833" y="55" width="38" height="2" fill="#F4F5FE"/>
<rect x="139.833" y="25" width="80" height="40" rx="2" fill="#6442E5"/>
<rect x="142.833" y="28" width="2" height="2" rx="1" fill="#9990F5"/>
<rect x="148.833" y="28" width="62" height="2" rx="1" fill="#9990F5"/>
<rect x="214.833" y="28" width="2" height="2" rx="1" fill="#9990F5"/>
<rect x="168.833" y="35" width="22" height="1" rx="0.5" fill="#9990F5"/>
<rect x="162.833" y="38" width="34" height="4" rx="2" fill="#9990F5"/>
<rect x="168.833" y="44" width="22" height="1" rx="0.5" fill="#9990F5"/>
<rect x="175.833" y="47" width="8" height="1" rx="0.5" fill="#9990F5"/>
<path d="M142.833 58C142.833 55.7909 144.624 54 146.833 54H212.833C215.042 54 216.833 55.7909 216.833 58V65H142.833V58Z" fill="#9990F5"/>
<rect x="228.083" y="25.25" width="79.5" height="39.5" rx="1.75" fill="#EBEAFD"/>
<rect x="228.083" y="25.25" width="79.5" height="39.5" rx="1.75" stroke="#BDBAFA" stroke-width="0.5"/>
<rect x="235.833" y="33" width="64" height="4" fill="#F4F5FE"/>
<rect x="235.833" y="39" width="64" height="2" fill="#F4F5FE"/>
<rect x="235.833" y="49" width="38" height="4" fill="#F4F5FE"/>
<rect x="235.833" y="55" width="38" height="2" fill="#F4F5FE"/>
<rect x="316.083" y="25.25" width="79.5" height="39.5" rx="1.75" fill="#EBEAFD"/>
<rect x="316.083" y="25.25" width="79.5" height="39.5" rx="1.75" stroke="#BDBAFA" stroke-width="0.5"/>
<rect x="323.833" y="33" width="64" height="4" fill="#F4F5FE"/>
<rect x="323.833" y="39" width="64" height="2" fill="#F4F5FE"/>
<rect x="323.833" y="49" width="38" height="4" fill="#F4F5FE"/>
<rect x="323.833" y="55" width="38" height="2" fill="#F4F5FE"/>
<rect x="-35.917" y="73.25" width="79.5" height="39.5" rx="1.75" fill="#EBEAFD"/>
<rect x="-35.917" y="73.25" width="79.5" height="39.5" rx="1.75" stroke="#BDBAFA" stroke-width="0.5"/>
<rect x="-28.167" y="81" width="64" height="4" fill="#F4F5FE"/>
<rect x="-28.167" y="87" width="64" height="2" fill="#F4F5FE"/>
<rect x="52.083" y="73.25" width="79.5" height="39.5" rx="1.75" fill="#EBEAFD"/>
<rect x="52.083" y="73.25" width="79.5" height="39.5" rx="1.75" stroke="#BDBAFA" stroke-width="0.5"/>
<rect x="59.833" y="81" width="64" height="4" fill="#F4F5FE"/>
<rect x="59.833" y="87" width="64" height="2" fill="#F4F5FE"/>
<rect x="140.083" y="73.25" width="79.5" height="39.5" rx="1.75" fill="#EBEAFD"/>
<rect x="140.083" y="73.25" width="79.5" height="39.5" rx="1.75" stroke="#BDBAFA" stroke-width="0.5"/>
<rect x="147.833" y="81" width="64" height="4" fill="#F4F5FE"/>
<rect x="147.833" y="87" width="64" height="2" fill="#F4F5FE"/>
<rect x="228.083" y="73.25" width="79.5" height="39.5" rx="1.75" fill="#EBEAFD"/>
<rect x="228.083" y="73.25" width="79.5" height="39.5" rx="1.75" stroke="#BDBAFA" stroke-width="0.5"/>
<rect x="235.833" y="81" width="64" height="4" fill="#F4F5FE"/>
<rect x="235.833" y="87" width="64" height="2" fill="#F4F5FE"/>
<rect x="316.083" y="73.25" width="79.5" height="39.5" rx="1.75" fill="#EBEAFD"/>
<rect x="316.083" y="73.25" width="79.5" height="39.5" rx="1.75" stroke="#BDBAFA" stroke-width="0.5"/>
<rect x="323.833" y="81" width="64" height="4" fill="#F4F5FE"/>
<rect x="323.833" y="87" width="64" height="2" fill="#F4F5FE"/>
<rect x="-35.917" y="-22.75" width="79.5" height="39.5" rx="1.75" fill="#EBEAFD"/>
<rect x="-35.917" y="-22.75" width="79.5" height="39.5" rx="1.75" stroke="#BDBAFA" stroke-width="0.5"/>
<rect x="-28.167" y="1" width="38" height="4" fill="#F4F5FE"/>
<rect x="-28.167" y="7" width="38" height="2" fill="#F4F5FE"/>
<rect x="52.083" y="-22.75" width="79.5" height="39.5" rx="1.75" fill="#EBEAFD"/>
<rect x="52.083" y="-22.75" width="79.5" height="39.5" rx="1.75" stroke="#BDBAFA" stroke-width="0.5"/>
<rect x="59.833" y="1" width="38" height="4" fill="#F4F5FE"/>
<rect x="59.833" y="7" width="38" height="2" fill="#F4F5FE"/>
<rect x="140.083" y="-22.75" width="79.5" height="39.5" rx="1.75" fill="#EBEAFD"/>
<rect x="140.083" y="-22.75" width="79.5" height="39.5" rx="1.75" stroke="#BDBAFA" stroke-width="0.5"/>
<rect x="147.833" y="1" width="38" height="4" fill="#F4F5FE"/>
<rect x="147.833" y="7" width="38" height="2" fill="#F4F5FE"/>
<rect x="228.083" y="-22.75" width="79.5" height="39.5" rx="1.75" fill="#EBEAFD"/>
<rect x="228.083" y="-22.75" width="79.5" height="39.5" rx="1.75" stroke="#BDBAFA" stroke-width="0.5"/>
<rect x="235.833" y="1" width="38" height="4" fill="#F4F5FE"/>
<rect x="235.833" y="7" width="38" height="2" fill="#F4F5FE"/>
<rect x="316.083" y="-22.75" width="79.5" height="39.5" rx="1.75" fill="#EBEAFD"/>
<rect x="316.083" y="-22.75" width="79.5" height="39.5" rx="1.75" stroke="#BDBAFA" stroke-width="0.5"/>
<rect x="323.833" y="1" width="38" height="4" fill="#F4F5FE"/>
<rect x="323.833" y="7" width="38" height="2" fill="#F4F5FE"/>
</g>
</g>
<defs>
<radialGradient id="paint0_radial_49_675" cx="0" cy="0" r="1" gradientUnits="userSpaceOnUse" gradientTransform="translate(172.833 45.5) rotate(-90) scale(83 152.881)">
<stop stop-color="#D9D9D9"/>
<stop offset="1" stop-color="#737373" stop-opacity="0"/>
</radialGradient>
<clipPath id="clip0_49_675">
<rect width="357.333" height="90" fill="white" transform="translate(0.833008)"/>
</clipPath>
</defs>
</svg>
